<?xml version="1.0" encoding="UTF-8" standalone="no"?>
<!-- Created with Inkscape (http://www.inkscape.org/) -->

<svg
   xmlns:dc="http://purl.org/dc/elements/1.1/"
   xmlns:cc="http://creativecommons.org/ns#"
   xmlns:rdf="http://www.w3.org/1999/02/22-rdf-syntax-ns#"
   xmlns:svg="http://www.w3.org/2000/svg"
   xmlns="http://www.w3.org/2000/svg"
   xmlns:xlink="http://www.w3.org/1999/xlink"
   xmlns:sodipodi="http://sodipodi.sourceforge.net/DTD/sodipodi-0.dtd"
   xmlns:inkscape="http://www.inkscape.org/namespaces/inkscape"
   width="47.019897"
   height="18.225031"
   id="svg2"
   version="1.1"
   inkscape:version="0.48.2 r9819"
   sodipodi:docname="Digg.svg">
  <defs
     id="defs4">
    <linearGradient
       id="linearGradient4052">
      <stop
         style="stop-color:#fdfefe;stop-opacity:1;"
         offset="0"
         id="stop4054" />
      <stop
         style="stop-color:#ccdced;stop-opacity:1;"
         offset="1"
         id="stop4056" />
    </linearGradient>
    <linearGradient
       inkscape:collect="always"
       xlink:href="#linearGradient4052"
       id="linearGradient4058"
       x1="81.797302"
       y1="3.8279617"
       x2="81.797302"
       y2="31.885172"
       gradientUnits="userSpaceOnUse"
       spreadMethod="pad"
       gradientTransform="matrix(0.29003228,0,0,0.59819028,0.73696251,12.934008)" />
  </defs>
  <sodipodi:namedview
     id="base"
     pagecolor="#ffffff"
     bordercolor="#666666"
     borderopacity="1.0"
     inkscape:pageopacity="0.0"
     inkscape:pageshadow="2"
     inkscape:zoom="5.6474939"
     inkscape:cx="-11.158276"
     inkscape:cy="7.6631255"
     inkscape:document-units="px"
     inkscape:current-layer="layer1"
     showgrid="false"
     fit-margin-top="0"
     fit-margin-left="0"
     fit-margin-right="0"
     fit-margin-bottom="0"
     inkscape:window-width="1609"
     inkscape:window-height="1006"
     inkscape:window-x="0"
     inkscape:window-y="0"
     inkscape:window-maximized="0" />
  <metadata
     id="metadata7">
    <rdf:RDF>
      <cc:Work
         rdf:about="">
        <dc:format>image/svg+xml</dc:format>
        <dc:type
           rdf:resource="http://purl.org/dc/dcmitype/StillImage" />
        <dc:title />
      </cc:Work>
    </rdf:RDF>
  </metadata>
  <g
     inkscape:label="Layer 1"
     inkscape:groupmode="layer"
     id="layer1"
     transform="translate(-0.58398676,-14.29685)">
    <rect
       style="fill:url(#linearGradient4058);fill-opacity:1;stroke:#6a9dd1;stroke-width:1;stroke-linecap:round;stroke-linejoin:miter;stroke-miterlimit:4;stroke-opacity:1;stroke-dasharray:none"
       id="rect2985"
       width="46.019897"
       height="17.225031"
       x="1.0839868"
       y="14.79685"
       ry="2.0463767" />
    <g
       transform="matrix(0.02463669,0,0,0.02463669,3.7691609,14.969636)"
       id="layer1-0"
       inkscape:label="Layer 1">
      <g
         transform="translate(-87.033366,-132.89474)"
         id="g3160">
        <path
           inkscape:connector-curvature="0"
           id="path3166"
           d="m 311.15337,723.36175 c -8.19017,-1.74196 -18.23136,-11.23447 -23.7572,-22.45903 -4.65451,-9.45467 -8.16259,-24.13931 -8.87982,-37.17053 l -0.60535,-10.99842 -6.08709,-5.43895 c -22.07112,-19.72109 -39.91709,-42.81631 -52.57413,-68.0384 -11.70008,-23.31513 -18.36733,-44.81036 -22.18543,-71.52581 -1.97225,-13.79997 -1.68405,-49.54305 0.50798,-63 6.16305,-37.83519 19.85882,-70.3788 42.44206,-100.85001 9.65091,-13.02182 31.85061,-35.22152 44.87243,-44.87243 47.92923,-35.52198 105.16731,-50.30209 165.12918,-42.63995 l 8.27917,1.05795 2.12066,-2.84778 c 1.16636,-1.56628 5.99074,-6.67372 10.72083,-11.34987 21.32234,-21.07918 42.5524,-21.95245 61.60017,-2.53384 11.45992,11.68303 19.13746,27.09183 25.11031,50.39632 l 3.44707,13.44955 11.02893,10.49395 c 33.17,31.56101 54.98219,69.24102 65.23748,112.69611 3.84632,16.29814 4.67684,25.45161 4.67031,51.47377 -0.006,25.28359 -1.06234,35.54305 -5.43335,52.78655 -14.08955,55.58298 -48.15257,103.25767 -96.17703,134.60965 -21.59686,14.09916 -50.83735,26.09673 -75.86746,31.12893 -25.80288,5.18757 -58.57532,5.7637 -83.01626,1.45941 -20.9461,-3.68881 -18.29523,-4.01073 -24.1691,2.93507 -6.75562,7.98848 -15.49158,15.37112 -21.90452,18.51123 -5.63486,2.75912 -17.92729,4.12656 -24.50984,2.72653 z m 144.74582,-62.52152 c 13.91433,-2.96196 26.78961,-7.08776 39.30307,-12.59441 15.52228,-6.8307 40.03457,-22.42735 40.03457,-25.47315 0,-0.76717 -3.74554,-5.29521 -8.32342,-10.06232 l -8.32342,-8.66745 -10.92658,10.95743 c -9.0648,9.09039 -12.28086,11.61963 -18.87472,14.84385 -7.2302,3.53538 -8.67544,3.88643 -16,3.88643 -6.45792,0 -9.00812,-0.47079 -12.88247,-2.37823 -10.38904,-5.11478 -19.19701,-17.53972 -23.86623,-33.66684 -2.10992,-7.28748 -2.29549,-9.80082 -2.2118,-29.95493 0.0824,-19.84398 0.33558,-23.00733 2.58327,-32.27885 l 2.49189,-10.27886 -20.29452,-20.72114 c -15.24403,-15.56448 -20.52189,-20.38357 -21.2081,-19.36465 -0.50246,0.74607 -1.21138,3.89607 -1.57537,7 -1.46823,12.52042 -7.04252,35.26366 -11.68266,47.66555 -1.80301,4.81895 -2.45156,5.54421 -5.71973,6.39613 -8.84578,2.30584 -91.51475,19.08182 -94.03175,19.08182 -2.17933,0 -3.24368,-0.81671 -4.8871,-3.75 -6.24739,-11.15076 -13.51509,-35.75146 -16.91316,-57.25 -2.52607,-15.98167 -2.59235,-61.3542 -0.11358,-77.74875 2.42265,-16.02336 6.31994,-32.71491 10.40006,-44.54208 6.29875,-18.25837 5.96838,-16.54462 3.63854,-18.87446 l -2.08198,-2.08199 -5.39077,7.37364 c -18.34816,25.09711 -29.56705,52.69378 -34.30047,84.37364 -1.98223,13.26669 -1.92588,37.74681 0.11927,51.81811 4.45747,30.66876 17.17013,61.36198 35.47883,85.65946 8.1206,10.77684 21.68054,25.02243 23.81809,25.02243 0.93742,0 21.25094,-4.06768 45.14114,-9.03929 23.89021,-4.9716 44.56174,-8.9091 45.93674,-8.75 2.44594,0.28303 2.50667,0.49472 2.80854,9.78929 0.4088,12.58696 -1.31644,26.93775 -4.91972,40.92286 -1.61871,6.28257 -2.59339,11.7691 -2.16596,12.1923 0.42743,0.42319 5.05214,1.45268 10.27714,2.28774 7.02124,1.12213 15.10982,1.42402 31,1.15701 18.43098,-0.30971 23.23612,-0.73085 33.66236,-2.95029 z m 112.6627,-71.38228 c 6.36795,-8.27563 12.86338,-19.27953 19.09712,-32.35243 11.19913,-23.48592 16.35761,-44.81161 17.26987,-71.3955 1.11116,-32.37961 -4.32938,-59.08806 -17.80174,-87.39153 -6.10454,-12.82477 -19.43119,-34.08788 -21.36456,-34.08788 -0.67791,0 -1.58017,5.06241 -2.35984,13.24062 -1.48438,15.57015 -5.06228,34.6664 -9.16814,48.93284 -3.26172,11.33338 -9.31023,27.50401 -11.31128,30.24061 -1.06442,1.45569 -10.25086,3.14409 -50.9924,9.37205 -27.33175,4.17806 -49.69409,7.85173 -49.69409,8.16371 0,0.31197 9.7875,10.33928 21.75,22.28291 l 21.75,21.71569 26,-3.931 c 14.3,-2.16205 27.43463,-4.14263 29.18807,-4.40129 4.98092,-0.73478 5.68056,0.94119 4.85965,11.64106 -0.95806,12.48746 -2.8851,23.10406 -6.56708,36.17975 l -3.07972,10.93695 13.28565,13.31305 c 7.3071,7.32218 13.60309,13.31305 13.99109,13.31305 0.38799,0 2.70433,-2.5977 5.1474,-5.77266 z M 435.33887,457.53585 c -8.16786,-24.43358 -10.56164,-43.43414 -9.82823,-78.01105 0.52402,-24.70491 1.77771,-35.78088 6.25873,-55.29419 2.30013,-10.0163 6.38161,-24.5298 7.94054,-28.2361 1.39773,-3.32307 -3.54828,-4.00508 -24.97308,-3.44355 -16.20389,0.42468 -22.22134,1.00264 -31.70324,3.04499 -15.45582,3.3291 -30.90126,8.56619 -43.79676,14.85018 l -10.5,5.11666 6,0.76684 c 12.91139,1.65015 21.54171,6.80706 32.25477,19.27329 14.79669,17.21815 26.09394,49.20991 30.23772,85.62769 l 1.08095,9.5 20.21099,20.25687 c 11.11605,11.14127 20.34459,19.85608 20.50787,19.36624 0.16328,-0.48985 -1.49734,-6.25789 -3.69026,-12.81787 z"
           style="fill:#b80000;fill-opacity:1" />
        <path
           inkscape:connector-curvature="0"
           id="path3164"
           d="m 311.37629,723.14466 c -9.05005,-2.76985 -17.59765,-11.02452 -23.20943,-22.41405 -5.12085,-10.39312 -7.73949,-20.94059 -9.18609,-37 l -1.17101,-13 -8.97397,-8 c -37.65234,-33.56585 -63.90548,-84.59238 -70.74373,-137.5 -1.83936,-14.23114 -1.5411,-45.17076 0.56875,-59 3.57523,-23.43418 9.93683,-43.72222 20.53845,-65.5 21.60824,-44.38754 57.54597,-80.52078 101.53757,-102.08995 21.59349,-10.58733 43.17901,-17.31965 67,-20.89664 12.16375,-1.82653 45.9547,-2.02211 60.65037,-0.35104 l 10.22206,1.16236 1.56378,-2.36585 c 6.24573,-9.44916 17.9312,-20.10047 26.83529,-24.46038 16.7542,-8.20373 32.91001,-4.41802 46.99532,11.01217 7.13253,7.81355 11.34947,14.76108 16.3902,27.00333 3.67678,8.92965 9.82238,29.94789 9.8366,33.64162 0.004,0.91059 6.69403,8.33559 14.86783,16.5 21.09506,21.07084 33.92255,38.97479 45.74769,63.85229 9.74536,20.50209 16.94023,45.42854 19.44661,67.37226 1.8709,16.37995 0.70197,55.97128 -2.02598,68.61983 -5.00697,23.21551 -10.96535,40.51846 -20.24861,58.80125 -22.24508,43.81031 -57.01045,78.12289 -101.04164,99.72568 -43.50309,21.34369 -93.78633,27.89311 -141.70423,18.45706 -6.85559,-1.35001 -12.72938,-2.12369 -13.05287,-1.71928 -0.32349,0.40441 -2.58937,3.39911 -5.03529,6.65488 -5.66119,7.53563 -14.76685,15.12984 -22.44713,18.72115 -6.76792,3.16469 -17.80184,4.47461 -23.36054,2.77331 z m 124.36054,-26.34838 c 32.05284,-1.49797 68.48008,-13.16863 97.89474,-31.3638 29.12967,-18.01887 53.77122,-42.51539 72.12641,-71.70187 16.04117,-25.50697 27.62149,-58.81728 31.45319,-90.47377 1.3163,-10.87498 1.30637,-37.92352 -0.0182,-49.52623 C 626.82614,362.92024 561.356,288.06472 472.73683,265.69906 c -39.00889,-9.84505 -82.17625,-8.53208 -120.23491,3.65702 -51.91377,16.62651 -95.02123,51.24073 -123.03063,98.79055 -14.17148,24.05803 -23.65494,51.91509 -27.77388,81.58398 -2.31818,16.69787 -1.59941,51.26021 1.39334,67 17.49015,91.98603 86.92195,161.25665 178.03042,177.61714 10.92384,1.96161 33.96751,3.7881 40.61566,3.21928 1.65,-0.14117 7.95,-0.48801 14,-0.77075 z m -39.45762,-28.59395 c -30.01538,-4.16454 -57.83504,-14.38977 -81.37461,-29.90957 -48.76675,-32.15225 -78.8934,-81.15139 -85.76243,-139.48731 -1.43938,-12.22405 -0.65328,-40.933 1.42589,-52.07484 5.3177,-28.49642 14.77866,-52.02183 30.16195,-75 7.85077,-11.72677 11.84254,-16.5 13.79869,-16.5 1.80533,0 267.70813,266.24769 267.70813,268.05536 0,1.8419 -9.96745,9.56981 -22.5,17.44456 -20.28809,12.7479 -42.50538,21.1802 -69,26.18811 -9.44236,1.78475 -44.83351,2.61901 -54.45762,1.28369 z m 38.45762,-2.98891 c 23.56758,-2.17574 46.93725,-8.65694 67,-18.58137 11.67437,-5.77495 33.18812,-19.72103 34.94173,-22.65065 0.87877,-1.46808 -0.51568,-3.31192 -8.67662,-11.47286 l -9.72367,-9.72366 -5.25653,5.97286 c -15.61364,17.74138 -26.61473,24.40307 -40.37519,24.44913 -12.1415,0.0406 -21.27689,-5.8037 -28.88056,-18.47626 -8.20269,-13.67093 -11.67392,-34.56583 -9.62314,-57.92607 1.02404,-11.66486 3.66546,-26.45318 5.46096,-30.57393 0.86332,-1.98134 -40.87232,-43.90003 -42.28507,-42.47054 -0.52755,0.5338 -1.66736,5.38781 -2.53292,10.7867 -3.04541,18.9956 -11.0128,48.61639 -13.48835,50.14636 -0.47402,0.29296 -22.79044,5.10229 -49.59205,10.68739 l -48.73019,10.15474 -1.85764,-2.40233 c -2.90223,-3.75321 -9.85657,-22.27862 -12.91444,-34.40232 -4.80602,-19.05466 -6.20778,-31.06755 -6.70954,-57.5 -0.77765,-40.96619 3.58285,-68.09185 16.43453,-102.23537 1.77272,-4.70964 1.77018,-4.74759 -0.46835,-6.98612 -3.10075,-3.10075 -4.27829,-2.15941 -12.91579,10.32509 -50.14495,72.47867 -42.21291,170.87224 18.98701,235.52573 7.75214,8.1896 8.28078,8.55437 11.66301,8.04757 1.94854,-0.29197 23.08039,-4.62864 46.95965,-9.63704 31.37182,-6.57987 43.71734,-8.80294 44.5,-8.01314 1.30694,1.31886 1.01973,19.84419 -0.48795,31.47328 -0.57044,4.4 -2.19499,12.5 -3.61012,18 -3.72269,14.46861 -3.86666,13.77959 3.18123,15.22484 14.09038,2.88938 32.81452,3.75221 49,2.25797 z M 428.98542,468.47921 C 355.9737,395.46593 296.23683,334.976 296.23683,334.05713 c 0,-3.93326 21.33223,-18.7226 40,-27.73145 40.86309,-19.72004 85.66686,-24.24796 130.0574,-13.14374 69.72015,17.44038 124.61806,74.41123 139.77097,145.04867 8.95314,41.73637 3.42472,86.42725 -15.3671,124.2251 -9.23207,18.56937 -23.25415,38.7749 -26.90872,38.7749 -1.39685,0 -44.58671,-42.53224 -134.80396,-132.7514 z m 139.03925,124.0014 c 11.01893,-13.97917 23.3292,-37.2118 29.21511,-55.13639 15.68055,-47.75259 11.85465,-98.56453 -10.82426,-143.75754 -6.17961,-12.3143 -18.77185,-31.35607 -20.73565,-31.35607 -0.79367,0 -1.44304,0.2378 -1.44304,0.52844 0,0.29064 -0.69017,7.15314 -1.53371,15.25 -2.07981,19.96339 -6.5749,41.63833 -12.0074,57.89858 -5.50332,16.47222 -7.78254,21.11679 -10.72105,21.8473 -1.23081,0.30598 -23.61284,3.86292 -49.73784,7.90431 -35.58126,5.50422 -47.79172,7.06236 -48.66258,6.20968 -3.60246,-3.52724 -11.60568,-32.73017 -13.74067,-50.13831 -5.15736,-42.05161 -1.87596,-77.20456 11.59782,-124.2448 0.85572,-2.98753 0.90217,-4.55846 0.15683,-5.3038 -1.69552,-1.69552 -35.09913,-1.34767 -47.35107,0.49309 -11.30517,1.69852 -29.73695,6.32731 -38.24101,9.6035 -10.13795,3.90565 -26.79691,12.33934 -26.45016,13.39054 0.19258,0.58381 3.2393,1.31984 6.77049,1.63563 12.23588,1.09423 18.79131,4.47616 28.92035,14.91991 16.81921,17.34178 28.89277,49.5072 33.10342,88.19148 l 1.27193,11.68554 43.56232,43.51004 43.56233,43.51004 24.50331,-3.85025 c 13.47681,-2.11763 26.97681,-4.00565 30,-4.19558 l 5.49669,-0.34534 0.30194,5.2409 c 0.4873,8.45804 -2.52775,28.14654 -6.33692,41.38063 l -3.535,12.28154 13.2711,13.29846 c 7.2991,7.31416 14.02703,13.29847 14.95096,13.29847 0.92392,0 3.01002,-1.6875 4.63576,-3.75 z"
           style="fill:none;stroke:none" />
        <path
           inkscape:connector-curvature="0"
           id="path3162"
           d="m 314.23683,723.28502 c -0.825,-0.45539 -3.87592,-1.86213 -6.77982,-3.1261 -10.54384,-4.58936 -19.79151,-17.99536 -24.0941,-34.92831 -2.13062,-8.38511 -4.54718,-28.50963 -3.60626,-30.03207 0.34019,-0.55044 3.11955,0.83585 6.29467,3.13966 20.59016,14.93983 44.86896,27.23534 66.93551,33.89814 4.92342,1.48658 7.25,2.68443 7.25,3.7327 0,2.53726 -17.99762,19.74792 -23.60923,22.57689 -4.60591,2.32197 -16.69777,5.77463 -19.70282,5.62587 -0.65337,-0.0323 -1.86295,-0.43139 -2.68795,-0.88678 z m 53,-65.66512 c -19.66705,-5.79428 -36.30974,-13.72654 -53.5,-25.49922 -13.09829,-8.9703 -18.28445,-13.45736 -17,-14.70835 0.55,-0.53567 19.9,-4.85871 43,-9.60674 23.1,-4.74804 42.96114,-8.84047 44.13588,-9.0943 3.13862,-0.67816 3.46315,1.94332 2.29263,18.51932 -1.34853,19.097 -6.48658,43.06523 -9.20644,42.94677 -0.67214,-0.0293 -5.04707,-1.18014 -9.72207,-2.55748 z m 93.29901,-27.76886 c -18.56073,-8.86109 -28.40666,-36.8673 -25.43278,-72.34211 1.1336,-13.52242 3.71342,-28.1266 5.25547,-29.75082 1.06409,-1.12079 75.8783,73.14508 75.8783,75.32215 0,0.74781 -4.6125,5.96094 -10.25,11.58474 -13.11397,13.0821 -19.924,16.75316 -32.09547,17.30161 -7.0771,0.31889 -8.84172,0.0394 -13.35552,-2.11557 z m 50.23857,-86.58283 c -12.62037,-12.62931 -22.7407,-23.16781 -22.48963,-23.41888 0.25107,-0.25107 11.25549,-2.07848 24.45427,-4.06091 13.19878,-1.98244 25.75487,-3.87025 27.90243,-4.19515 l 3.90466,-0.59071 -0.69857,10.80509 c -1.01484,15.69716 -7.10056,44.42296 -9.41124,44.42296 -0.39369,0 -11.04156,-10.33308 -23.66192,-22.9624 z m -229.29695,18.26818 c -2.82497,-4.0133 -8.6613,-19.2096 -11.63931,-30.30578 -5.10853,-19.03457 -6.78691,-32.67639 -7.32039,-59.5 -0.54792,-27.54921 0.79044,-44.30744 5.20853,-65.21841 3.84186,-18.18363 10.93624,-39.28159 13.2088,-39.28159 0.44458,0 26.4289,25.62353 57.74293,56.94119 l 56.93462,56.94118 -1.22734,9.30882 c -2.37311,17.99892 -10.48325,49.36857 -13.60903,52.63908 -0.69927,0.73164 -21.69421,5.5708 -46.65542,10.75367 -24.96121,5.18287 -46.57301,9.67185 -48.02621,9.97551 -2.0997,0.43875 -3.04769,-0.024 -4.61718,-2.25367 z m 159.91345,-92.05578 c -1.76637,-3.37357 -6.13118,-16.3272 -8.08761,-24.00197 -7.52447,-29.51724 -8.72267,-71.40095 -3.00995,-105.21419 2.28792,-13.54208 7.32061,-34.29406 10.15236,-41.86258 l 1.99457,-5.33095 5.14827,0.69095 c 8.37478,1.12399 28.2659,6.38829 37.60636,9.95274 17.62104,6.72445 36.48885,17.49471 50.54192,28.85073 11.51368,9.30397 27.5,25.9028 27.5,28.55363 0,6.10062 -3.38217,33.05852 -5.52866,44.06677 -4.35517,22.33532 -13.77859,50.40052 -17.27783,51.45749 -2.80495,0.84725 -92.83105,14.58738 -95.57732,14.58738 -1.40886,0 -2.95503,-0.78154 -3.46211,-1.75 z m -93.15616,-88.01483 c -25.29886,-25.17066 -45.99792,-46.47333 -45.99792,-47.33927 0,-0.86593 3.4875,-4.06084 7.75,-7.09978 13.37651,-9.53677 12.18282,-9.08135 22.60785,-8.6254 13.04383,0.57049 19.61591,3.85853 30.29937,15.15892 15.05806,15.92759 26.01822,42.70356 30.76935,75.17036 2.59405,17.72642 2.66025,18.5 1.58317,18.5 -0.55765,0 -21.71296,-20.59418 -47.01182,-45.76483 z m 203.00208,-83.88777 c -24.89052,-18.17198 -51.26236,-29.97798 -85.75,-38.38809 -2.68622,-0.65506 -4.25,-1.59684 -4.25,-2.55956 0,-0.83774 4.1625,-5.70661 9.25,-10.81972 7.38812,-7.42531 10.84984,-10.07991 17.19814,-13.18829 7.25167,-3.55072 8.65369,-3.89021 16,-3.87428 6.89796,0.015 8.98337,0.45885 14.55186,3.09739 12.43672,5.89293 22.51784,17.78422 30.21718,35.643 4.37263,10.14242 10.09119,29.64836 9.60554,32.76438 -0.29398,1.88629 -0.90148,1.64812 -6.82272,-2.67483 z"
           style="fill:#20201f;fill-opacity:1;stroke:none" />
      </g>
    </g>
    <text
       xml:space="preserve"
       style="font-size:14.40710354px;font-style:normal;font-weight:normal;line-height:125%;letter-spacing:0px;word-spacing:0px;fill:#105ab6;fill-opacity:1;stroke:none;font-family:Sans"
       x="20.158445"
       y="26.725389"
       id="text4002"
       sodipodi:linespacing="125%"><tspan
         sodipodi:role="line"
         id="tspan4004"
         x="20.158445"
         y="26.725389"
         style="font-size:10px;font-style:normal;font-variant:normal;font-weight:bold;font-stretch:normal;fill:#105ab6;fill-opacity:1;font-family:Arial;-inkscape-font-specification:Arial Bold">Digg</tspan></text>
    <flowRoot
       xml:space="preserve"
       id="flowRoot4044"
       style="font-size:40px;font-style:normal;font-weight:normal;line-height:125%;letter-spacing:0px;word-spacing:0px;fill:#000000;fill-opacity:1;stroke:none;font-family:Sans"
       transform="translate(0.68711385,2.5916514)"><flowRegion
         id="flowRegion4046"><rect
           id="rect4048"
           width="297.62234"
           height="113.86864"
           x="63.531864"
           y="-216.95096" /></flowRegion><flowPara
         id="flowPara4050" /></flowRoot>  </g>
</svg>
