<svg id="Page-1" xmlns="http://www.w3.org/2000/svg" width="99.032" height="99.033" viewBox="0 0 99.032 99.033">
  <path id="help" d="M49.516,99.033A49.516,49.516,0,1,0,0,49.516,49.516,49.516,0,0,0,49.516,99.033Zm-6.386-40.6a13.661,13.661,0,0,1,.761-4.849,10.06,10.06,0,0,1,2.567-3.708q2.662-2.567,4.9-4.468t3.85-3.565a18.482,18.482,0,0,0,2.519-3.137,5.825,5.825,0,0,0,.9-3.09,6.258,6.258,0,0,0-1.949-4.9,7.033,7.033,0,0,0-4.9-1.759q-4.468,0-6.8,2.472a9.6,9.6,0,0,0-2.614,5.989l-14.641-.951Q28.775,26.4,35.145,21.122T51.5,15.845a27.739,27.739,0,0,1,8.224,1.188,20.193,20.193,0,0,1,6.8,3.565,17.037,17.037,0,0,1,4.659,5.894,18.251,18.251,0,0,1,1.711,8.081,20.192,20.192,0,0,1-.57,4.991,15.466,15.466,0,0,1-1.949,4.421,25.781,25.781,0,0,1-3.613,4.421A61.283,61.283,0,0,1,61.1,53.3a9.835,9.835,0,0,0-2.947,3.327,7.535,7.535,0,0,0-.761,3.232V62.62H43.131ZM41.514,76.691a8.9,8.9,0,0,1,.666-3.423,8.407,8.407,0,0,1,4.658-4.659,9.134,9.134,0,0,1,6.845,0,8.407,8.407,0,0,1,4.658,4.659,9.134,9.134,0,0,1,0,6.845,8.407,8.407,0,0,1-4.658,4.658,9.134,9.134,0,0,1-6.845,0,8.407,8.407,0,0,1-4.658-4.658A8.9,8.9,0,0,1,41.514,76.691Z" fill-rule="evenodd"/>
</svg>
