<svg xmlns="http://www.w3.org/2000/svg" viewBox="-1747.579 2191.24 365.35 264.081">
  <defs>
    <style>
      .cls-1, .cls-2 {
        fill: none;
      }

      .cls-1 {
        stroke: #f2aa27;
        stroke-miterlimit: 10;
        stroke-width: 25.08px;
      }

      .cls-3 {
        fill: #fff;
      }
    </style>
  </defs>
  <g id="privacy-badger-logo" transform="translate(-1747.511 2191.229)">
    <path id="_Path_" data-name="&lt;Path&gt;" class="cls-1" d="M535.9,424.321,534.42,418.6c-7.373-28.442-27.122-47.848-27.959-48.663h0l-.483-.461a78.865,78.865,0,0,0-13-41.73c4.293-.8,9.5-1.728,15.445-2.7l-1.492-8.372,11.624,5.012c13.953-8.275,19.062-25.5,9.9-40.055-7.739-12.289-33.97-15.1-48.534-7.513-8.2,4.293-16.561,13.62-22.314,21a124.427,124.427,0,0,0-58.076-16.293,160.49,160.49,0,0,0-33.97,2.662c-1.138-14.028-10.389-29.151-27.476-30.052-21.037-1.073-32.36,12.944-31.823,26.425.3,7.513,6.526,15.273,11.935,20.6a111.279,111.279,0,0,0-45.755,48.3c-20.135,40.71-46.152,58.237-54.738,63.99a18.248,18.248,0,0,0-3.628,2.769c-12.987,6.032-13.953,18.772-6.493,29.419a19.706,19.706,0,0,0,7.513,5.957,33.263,33.263,0,0,0,2.6,4.046c13.266,17.688,42.664,21.4,64.988,21.4a184.848,184.848,0,0,0,20.393-1.073l24.943,2.029c5.152,6.44,13.384,10.636,23.054,11.1,8.49.408,15.1-2.415,17.173-3.027,12.386,3.81,20.221,7.009,32.736,7.009,20.21,0,41.311-4.722,58.784-14.3,15.091-8.264,27.09-21.616,33.991-33.347.354-.59.687-1.2,1.073-1.814,14.543-3.649,23.494,4.669,23.612,4.733l4.6,3.327-1.073-5.9c-2.694-14.447-8.189-23.248-12.3-28.475,9.864.816,21.058,6.644,21.208,6.74Z" transform="translate(-190.39 -238.82)"/>
    <g id="_Group_" data-name="&lt;Group&gt;" transform="translate(12.511 12.556)">
      <g id="_Group_2" data-name="&lt;Group&gt;">
        <path id="_Path_2" data-name="&lt;Path&gt;" class="cls-2" d="M507.421,403.6c-5.549-2.715-14.65-5.485-22.131-5.452a61.692,61.692,0,0,1,22.131,5.452Z" transform="translate(-182.203 -240.618)"/>
        <path id="_Path_3" data-name="&lt;Path&gt;" class="cls-3" d="M338.826,284.912c-.708-5.8-2.866-14.1-9.4-15.735-10.25-2.565-19.47,4.1-16.9,12.8a24.847,24.847,0,0,0,6.73,10.572l.419-.2a162.544,162.544,0,0,1,19.158-7.438Z" transform="translate(-194.898 -250.112)"/>
        <path id="_Path_4" data-name="&lt;Path&gt;" class="cls-3" d="M466.405,314.361c1.664-.462,3.574-.955,5.774-1.481,14.854-3.585,21.466-10.733,19.985-16.4s-12.3-10.25-22.539-4.1a65.926,65.926,0,0,0-13.7,11.678,100.691,100.691,0,0,1,10.475,10.3Z" transform="translate(-184.355 -248.585)"/>
        <path id="_Path_5" data-name="&lt;Path&gt;" class="cls-3" d="M315.616,454.628a92.4,92.4,0,0,0,10.239.494,119.914,119.914,0,0,0,14.758-.923L334.6,447.19a116.457,116.457,0,0,1-19.663,7.62Z" transform="translate(-194.689 -237.024)"/>
        <path id="_Path_6" data-name="&lt;Path&gt;" class="cls-3" d="M343.752,454.337c2.3-.4,4.647-.869,7.041-1.449a58.4,58.4,0,0,0,14.65-5.646L352.188,435.78A100.894,100.894,0,0,1,336.7,446.116Z" transform="translate(-193.094 -237.86)"/>
        <path id="_Path_7" data-name="&lt;Path&gt;" class="cls-3" d="M299.967,314.084a152.746,152.746,0,0,0-15.885,27l8.9-1.213a208.906,208.906,0,0,1-59.16,66.169,64.666,64.666,0,0,1,29.762,5.967,27.523,27.523,0,0,1,4.787,2.941c6.794-5.163,38.864-29.945,52.924-47.976,15.777-20.221,25.083-27.509,25.083-27.509l2.479,10.937s46.152-47.729,86.154-45.3c0,0-5.259,3.22-8.093,11.731,0,0,27.187-6.88,54.566,6.644A109.48,109.48,0,0,0,465.6,307.483c-18.761-15.337-42.932-23.258-65.063-25.083-41.215,11.6-89.706,63.55-89.706,63.55s6.515-11.806,20.017-29.322c10.883-14.146,26.188-27.455,32.682-32.854a147.393,147.393,0,0,0-38.95,12.3A73.992,73.992,0,0,0,299.967,314.084Z" transform="translate(-200.635 -249.102)"/>
        <path id="_Path_8" data-name="&lt;Path&gt;" class="cls-3" d="M377,436.072c1.138-2.147,1.46-4.154.923-5.56-1.073-2.64-3.156-3.982-6.332-3.982S363,427.6,354.8,433.442l13.6,11.806a27.971,27.971,0,0,0,8.6-9.177Z" transform="translate(-191.767 -238.538)"/>
        <ellipse id="_Path_9" data-name="&lt;Path&gt;" class="cls-3" cx="12.944" cy="5.388" rx="12.944" ry="5.388" transform="translate(33.293 168.308)"/>
        <path id="_Path_10" data-name="&lt;Path&gt;" d="M359.54,417.7l.537.268c7.352-3.435,23.194-3.778,29.666,3.22,8.082,8.758.784,19.716-1.073,21.573h.537c5.366-2.694,8.436-6.1,9.434-10.518,1.288-5.71.633-9.917-3.22-14.5C388.1,409.094,371.411,408.257,359.54,417.7Z" transform="translate(-191.42 -239.681)"/>
        <path id="_Compound_Path_" data-name="&lt;Compound Path&gt;" class="cls-3" d="M501.681,364.794v-.408a54.61,54.61,0,0,0-26.457-12.74h0c-11.162-1.792-24.686-.408-38.639,9.123,0,0,23.462-2.018,36,10.11,0,0-17.4-4.454-31.952,3.22s-33.573,32.36-70.376,30.739c-30.75-1.352-39.24-3.22-57.035,3.638-11.5,4.443-26.339,11.914-35.419,16.647-.182,5.216-3.617,10.54-12.3,14.769-13.749,6.7-30.138,7.6-42.492,4.808,13.577,14.393,42.02,16.625,58.323,16.625a178.769,178.769,0,0,0,19.942-1.073h.29l.794.064,2.812-.429c.3,0,30.406-4.776,52.473-21.766,9.381-7.223,17.334-10.894,23.613-10.894,5.152,0,9.112,2.576,10.862,7.084,1.073,2.758.676,6.064-1.138,9.552-4.508,8.661-16.55,16.507-30.686,19.974a118.136,118.136,0,0,1-26.832,3.22c4.068,3.531,9.66,5.678,16.1,6.365a36.333,36.333,0,0,0,17.1-2.4l.88-.3h0c3.07-1.148,13.019-6.8,13.019-6.8s-3.95,6.44-7.706,8.9c10.475,3.037,16.389,3.714,27.058,3.714,30.729,0,68.82-19.491,85.552-47.933l.215-.386v.075c13.191-4.69,22.292-.622,27.283,2.479-4.433-16.872-12.708-25.244-12.815-25.351l-3.327-3.22,3.6-.419a29.07,29.07,0,0,1,4.046-.118c7.513,0,16.582,2.737,22.131,5.452a92.433,92.433,0,0,0-24.911-42.309Zm-93,71.857c-1,4.422-4.046,7.814-9.434,10.518h-.537c1.857-1.857,9.155-12.815,1.073-21.573-6.44-7.009-22.3-6.665-29.666-3.22l-.537-.268c11.86-9.434,28.56-8.586,35.87.064C409.291,426.734,409.946,430.941,408.68,436.651Z" transform="translate(-201.427 -244.076)"/>
        <path id="_Compound_Path_2" data-name="&lt;Compound Path&gt;" d="M535.9,424.321,534.42,418.6c-7.373-28.442-27.122-47.848-27.959-48.663h0l-.483-.461a78.865,78.865,0,0,0-13-41.73c4.293-.8,9.5-1.728,15.445-2.7l-1.492-8.372,11.624,5.012c13.953-8.275,19.062-25.5,9.9-40.055-7.739-12.289-33.97-15.1-48.534-7.513-8.2,4.293-16.561,13.62-22.314,21a124.427,124.427,0,0,0-58.076-16.293,160.475,160.475,0,0,0-33.97,2.662c-1.138-14.028-10.39-29.151-27.476-30.052-21.037-1.073-32.36,12.944-31.823,26.425.3,7.513,6.526,15.273,11.935,20.6a111.279,111.279,0,0,0-45.755,48.3c-20.135,40.71-46.152,58.237-54.738,63.99a18.248,18.248,0,0,0-3.628,2.769c-12.987,6.032-13.953,18.772-6.493,29.419a19.706,19.706,0,0,0,7.513,5.957,33.263,33.263,0,0,0,2.6,4.046c13.266,17.688,42.664,21.4,64.988,21.4a184.833,184.833,0,0,0,20.393-1.073l24.943,2.029c5.152,6.44,13.384,10.636,23.054,11.1,8.49.408,15.1-2.415,17.173-3.027,12.386,3.81,20.221,7.009,32.736,7.009,20.21,0,41.311-4.722,58.784-14.3,15.091-8.264,27.09-21.616,33.991-33.347.354-.59.687-1.2,1.073-1.814,14.543-3.649,23.494,4.669,23.612,4.733l4.6,3.327-1.073-5.9c-2.694-14.447-8.189-23.248-12.3-28.475,9.864.816,21.058,6.644,21.208,6.74ZM488.15,295.171c10.25-6.15,21-1.535,22.539,4.1s-5.12,12.815-19.985,16.4c-2.147.526-4.1,1.073-5.774,1.481a100.717,100.717,0,0,0-10.486-10.3A65.923,65.923,0,0,1,488.15,295.171Zm-122.356-9.134c-6.493,5.366-21.8,18.708-32.682,32.854C319.6,336.45,313.1,348.213,313.1,348.213s48.492-51.958,89.706-63.55c22.11,1.825,46.291,9.735,65.063,25.083a109.488,109.488,0,0,1,15.885,15.992c-27.391-13.524-54.566-6.644-54.566-6.644,2.833-8.49,8.093-11.731,8.093-11.731-40.1-2.415-86.154,45.315-86.154,45.315L348.7,341.752s-9.305,7.277-25.083,27.509c-14.06,18.031-46.152,42.814-52.924,47.976A27.516,27.516,0,0,0,265.9,414.3a64.664,64.664,0,0,0-29.763-5.968A208.905,208.905,0,0,0,295.246,342.2l-8.9,1.213a152.748,152.748,0,0,1,15.885-27A73.992,73.992,0,0,1,326.8,298.391a147.394,147.394,0,0,1,38.95-12.343Zm37.63,96.425a15.8,15.8,0,1,0-.043.011ZM262.039,425.083c0,2.984-5.8,5.366-12.944,5.366s-12.944-2.415-12.944-5.366,5.8-5.366,12.944-5.366S262.039,422.1,262.039,425.083Zm58.4-141.825c-2.565-8.715,6.665-15.37,16.9-12.8,6.536,1.631,8.694,9.939,9.4,15.735a162.531,162.531,0,0,0-19.158,7.427l-.419.2a24.847,24.847,0,0,1-6.687-10.561Zm59.031,174.786-13.534-11.731c8.189-5.839,13.674-6.912,16.786-6.912s5.3,1.342,6.333,3.982c.547,1.4.215,3.37-.923,5.56a27.969,27.969,0,0,1-8.6,9.091ZM361.93,449.3l13.255,11.463a58.4,58.4,0,0,1-14.651,5.646q-3.59.885-7.041,1.449l-7.052-8.232a100.89,100.89,0,0,0,15.552-10.336Zm-19.18,12.257,6.01,7.009a119.925,119.925,0,0,1-14.758.923,92.367,92.367,0,0,1-10.239-.494l-.665.182a116.452,116.452,0,0,0,19.727-7.631Zm163.141-52.591a29.069,29.069,0,0,0-4.046.118l-3.6.419,3.327,3.22c.107.107,8.382,8.49,12.815,25.351-4.98-3.1-14.092-7.17-27.283-2.479v-.064l-.215.386c-16.733,28.442-54.813,47.933-85.552,47.933-10.669,0-16.582-.665-27.058-3.714,3.767-2.512,7.706-8.9,7.706-8.9s-9.96,5.656-13.019,6.8h0l-.88.3a36.33,36.33,0,0,1-16.969,2.318c-6.44-.687-12.032-2.833-16.1-6.365a118.14,118.14,0,0,0,26.832-3.22c14.135-3.467,26.178-11.3,30.685-19.974,1.814-3.488,2.211-6.794,1.138-9.552-1.749-4.5-5.71-7.084-10.862-7.084-6.29,0-14.243,3.66-23.613,10.894-22.067,16.99-52.173,21.723-52.473,21.766l-2.812.429-.794-.064h-.29a178.739,178.739,0,0,1-19.942,1.073c-16.314,0-44.756-2.243-58.323-16.625,12.354,2.8,28.743,1.889,42.492-4.808,8.672-4.229,12.107-9.552,12.3-14.769,9.091-4.744,23.945-12.214,35.419-16.647,17.8-6.88,26.274-4.991,57.035-3.638,36.8,1.621,55.811-23.054,70.376-30.739s31.952-3.22,31.952-3.22c-12.536-12.139-36-10.111-36-10.111,13.953-9.531,27.466-10.915,38.639-9.123h0a54.609,54.609,0,0,1,26.489,12.74v.408A92.433,92.433,0,0,1,528.238,414.3a61.694,61.694,0,0,0-22.249-5.388Z" transform="translate(-202.901 -251.376)"/>
      </g>
      <path id="_Compound_Path_3" data-name="&lt;Compound Path&gt;" class="cls-3" d="M354,374.828a19.148,19.148,0,1,0,19.148-19.148A19.148,19.148,0,0,0,354,374.828Zm30.149,1a11.066,11.066,0,1,1-4.186-9.66l-6.826,8.683Z" transform="translate(-191.826 -243.731)"/>
      <path id="_Path_11" data-name="&lt;Path&gt;" d="M372.606,363.22a11.055,11.055,0,1,0,11,12.053l-11-1,6.826-8.683a10.98,10.98,0,0,0-6.826-2.372Z" transform="translate(-191.273 -243.178)"/>
      <path id="_Compound_Path_4" data-name="&lt;Compound Path&gt;" class="cls-3" d="M349,369.162a24.482,24.482,0,1,0,24.482-24.482A24.482,24.482,0,0,0,349,369.162Zm38.639,1.277a14.146,14.146,0,1,1-5.367-12.386l-8.726,11.109Z" transform="translate(-192.192 -244.537)"/>
      <path id="_Path_12" data-name="&lt;Path&gt;" d="M372.813,354.32a14.135,14.135,0,1,0,14.114,15.412l-14.071-1.277,8.7-11.109a14.081,14.081,0,0,0-8.747-3.027Z" transform="translate(-191.48 -243.831)"/>
    </g>
  </g>
</svg>
