<?xml version="1.0" encoding="UTF-8"?>
<svg width="25px" height="25px" viewBox="0 0 25 25" version="1.1" xmlns="http://www.w3.org/2000/svg" xmlns:xlink="http://www.w3.org/1999/xlink">
    <!-- Generator: Sketch 41.2 (35397) - http://www.bohemiancoding.com/sketch -->
    <title>options</title>
    <desc>Created with Sketch.</desc>
    <defs></defs>
    <g id="Page-1" stroke="none" stroke-width="1" fill="none" fill-rule="evenodd">
        <path d="M11.1137761,0 L13.8862239,0 L15.1111221,3.49596388 C15.7747737,3.68841929 16.4151138,3.95365681 17.0204729,4.28684287 L20.3586264,2.68095692 L22.3190431,4.64137355 L20.7131571,7.97952714 C21.0463432,8.58488624 21.3115807,9.22522626 21.5040361,9.88887791 L25,11.1137761 L25,13.8862239 L21.5040361,15.1111221 C21.3115807,15.7747737 21.0463432,16.4151138 20.7131571,17.0204729 L22.3190431,20.3586264 L20.3586264,22.3190431 L17.0204729,20.7131571 C16.4151138,21.0463432 15.7747737,21.3115807 15.1111221,21.5040361 L13.8862239,25 L11.1137761,25 L9.88887791,21.5040361 C9.22522626,21.3115807 8.58488624,21.0463432 7.97952714,20.7131571 L4.64137355,22.3190431 L2.68095692,20.3586264 L4.28684287,17.0204729 C3.95365681,16.4151138 3.68841929,15.7747737 3.49596388,15.1111221 L0,13.8862239 L0,11.1137761 L3.49596388,9.88887791 C3.68841929,9.22522626 3.95365681,8.58488624 4.28684287,7.97952714 L2.68095692,4.64137355 L4.64137355,2.68095692 L7.97952714,4.28684287 C8.58488624,3.95365681 9.22522626,3.68841929 9.88887791,3.49596388 L11.1137761,0 Z M12.5,6.640625 C9.26395654,6.640625 6.640625,9.26395654 6.640625,12.5 C6.640625,15.7360435 9.26395654,18.359375 12.5,18.359375 C15.7360435,18.359375 18.359375,15.7360435 18.359375,12.5 C18.359375,9.26395654 15.7360435,6.640625 12.5,6.640625 Z" id="options" fill="#656565"></path>
    </g>
</svg>