<svg id="Page-1" xmlns="http://www.w3.org/2000/svg" width="99.032" height="99.033" viewBox="0 0 99.032 99.033">
  <path id="options" d="M44.025,0H55.008L59.86,13.849a37.137,37.137,0,0,1,7.564,3.133L80.647,10.62l7.766,7.766L82.051,31.609a37.138,37.138,0,0,1,3.133,7.564l13.849,4.852V55.008L85.184,59.86a37.138,37.138,0,0,1-3.133,7.564l6.361,13.223-7.766,7.766L67.423,82.051a37.138,37.138,0,0,1-7.564,3.133L55.008,99.033H44.025L39.173,85.184a37.138,37.138,0,0,1-7.564-3.133L18.386,88.413,10.62,80.647l6.361-13.223a37.137,37.137,0,0,1-3.133-7.564L0,55.008V44.025l13.849-4.852a37.137,37.137,0,0,1,3.133-7.564L10.62,18.386l7.766-7.766,13.223,6.361a37.137,37.137,0,0,1,7.564-3.133Zm5.491,26.306A23.211,23.211,0,1,0,72.727,49.516,23.211,23.211,0,0,0,49.516,26.306Z" fill-rule="evenodd"/>
</svg>
