<svg xmlns="http://www.w3.org/2000/svg" viewBox="785 -1123.209 61.5 61.5">
  <defs>
    <style>
      .cls-1 {
        fill: #f06a0a;
      }

      .cls-2 {
        fill: #fff;
      }
    </style>
  </defs>
  <g id="google" transform="translate(296 -1877)">
    <g id="XMLID_38_" transform="translate(489 753.791)">
      <path id="XMLID_41_" class="cls-1" d="M0,190v61.5H61.5V190Z" transform="translate(0 -190)"/>
    </g>
    <path id="Path_44" data-name="Path 44" class="cls-2" d="M36.642,214.355a13.863,13.863,0,0,1-1.976.494c1.153,3.376-.576,7.821-3.7,9.3-1.647.823-4.363.412-4.446,2.47-.165,2.8,7.327,3.129,8.809,4.94,1.647,1.976,1.4,6.257-.494,8.315-2.635,2.964-11.773,3.211-14.819,0-2.47-2.635-1.564-8.974,2.964-9.468-1.894-.659-2.058-5.434-.247-6.422-7-4.446-3.952-15.643,5.681-14.408,2.141.329,5.187,1.894,8.068,0v4.857h.165Z" transform="translate(485.701 560.348)"/>
    <path id="XMLID_37_" class="cls-1" d="M26.05,220.594a4.231,4.231,0,0,0,4.693,0C34.283,213.349,22.428,212.855,26.05,220.594Z" transform="translate(484.52 559.378)"/>
    <path id="Path_45" data-name="Path 45" class="cls-2" d="M57.378,224.5h-5.6v5.6H47.416v-5.6H41.9v-4.2h5.516v-5.6H51.78v5.6h5.6Z" transform="translate(481.596 559.426)"/>
    <path id="XMLID_34_" class="cls-1" d="M24.945,241.375c.823,2.47,7.986,2.305,7.657-1.153-.247-2.388-3.129-2.552-5.434-1.894C25.11,238.658,24.2,239.234,24.945,241.375Z" transform="translate(484.637 555.31)"/>
  </g>
</svg>
