<svg xmlns="http://www.w3.org/2000/svg" xmlns:xlink="http://www.w3.org/1999/xlink" zoomAndPan="magnify" viewBox="0 0 45.75 45.749999" preserveAspectRatio="xMidYMid meet" version="1.0"><defs><clipPath id="5eea3fff46"><path d="M 0 0 L 45.425781 0 L 45.425781 45.425781 L 0 45.425781 Z M 0 0 " clip-rule="nonzero"/></clipPath><clipPath id="dbb79b461a"><path d="M 6.617188 5.523438 L 38.855469 5.523438 L 38.855469 39.957031 L 6.617188 39.957031 Z M 6.617188 5.523438 " clip-rule="nonzero"/></clipPath></defs><g clip-path="url(#5eea3fff46)"><path fill="#f06a0a" d="M 0 0 L 45.425781 0 L 45.425781 45.425781 L 0 45.425781 Z M 0 0 " fill-opacity="1" fill-rule="nonzero"/></g><g clip-path="url(#dbb79b461a)"><path fill="#ffffff" d="M 38.722656 13.355469 C 38.226562 9.722656 35.011719 6.859375 31.199219 6.304688 C 30.554688 6.210938 28.117188 5.867188 22.46875 5.867188 L 22.429688 5.867188 C 16.78125 5.867188 15.566406 6.210938 14.925781 6.304688 C 11.21875 6.84375 7.832031 9.414062 7.011719 13.09375 C 6.617188 14.902344 6.574219 16.910156 6.648438 18.75 C 6.75 21.390625 6.773438 24.027344 7.015625 26.65625 C 7.183594 28.40625 7.476562 30.136719 7.894531 31.84375 C 8.675781 34.996094 11.835938 37.617188 14.933594 38.6875 C 18.246094 39.800781 21.8125 39.988281 25.230469 39.222656 C 25.605469 39.136719 25.976562 39.035156 26.34375 38.921875 C 27.171875 38.660156 28.148438 38.371094 28.863281 37.859375 C 28.871094 37.855469 28.878906 37.84375 28.886719 37.835938 C 28.890625 37.824219 28.894531 37.8125 28.894531 37.800781 L 28.894531 35.25 C 28.894531 35.238281 28.890625 35.230469 28.886719 35.21875 C 28.882812 35.207031 28.875 35.199219 28.863281 35.191406 C 28.855469 35.1875 28.84375 35.179688 28.835938 35.179688 C 28.824219 35.175781 28.8125 35.175781 28.800781 35.179688 C 26.613281 35.695312 24.371094 35.953125 22.117188 35.949219 C 18.246094 35.949219 17.203125 34.136719 16.90625 33.386719 C 16.667969 32.734375 16.515625 32.054688 16.453125 31.367188 C 16.453125 31.355469 16.457031 31.34375 16.460938 31.332031 C 16.464844 31.320312 16.472656 31.3125 16.480469 31.304688 C 16.488281 31.296875 16.5 31.292969 16.511719 31.289062 C 16.523438 31.289062 16.535156 31.289062 16.546875 31.289062 C 18.699219 31.800781 20.90625 32.058594 23.121094 32.058594 C 23.652344 32.058594 24.183594 32.058594 24.714844 32.046875 C 26.941406 31.984375 29.289062 31.871094 31.480469 31.449219 C 31.535156 31.441406 31.589844 31.429688 31.636719 31.417969 C 35.09375 30.761719 38.378906 28.710938 38.714844 23.519531 C 38.726562 23.316406 38.757812 21.378906 38.757812 21.167969 C 38.761719 20.445312 38.996094 16.054688 38.722656 13.355469 Z M 33.40625 26.308594 L 29.773438 26.308594 L 29.773438 17.550781 C 29.773438 15.707031 28.992188 14.765625 27.402344 14.765625 C 25.65625 14.765625 24.78125 15.878906 24.78125 18.074219 L 24.78125 22.871094 L 21.171875 22.871094 L 21.171875 18.074219 C 21.171875 15.878906 20.296875 14.765625 18.550781 14.765625 C 16.96875 14.765625 16.183594 15.707031 16.179688 17.550781 L 16.179688 26.308594 L 12.550781 26.308594 L 12.550781 17.285156 C 12.550781 15.4375 13.027344 13.972656 13.984375 12.886719 C 14.972656 11.804688 16.265625 11.246094 17.875 11.246094 C 19.734375 11.246094 21.136719 11.953125 22.074219 13.359375 L 22.980469 14.851562 L 23.886719 13.359375 C 24.820312 11.953125 26.226562 11.246094 28.085938 11.246094 C 29.6875 11.246094 30.984375 11.804688 31.972656 12.886719 C 32.929688 13.972656 33.410156 15.4375 33.410156 17.285156 Z M 33.40625 26.308594 " fill-opacity="1" fill-rule="nonzero"/></g></svg>