<?xml version="1.0" encoding="utf-8"?>
<!-- Generator: Adobe Illustrator 24.0.1, SVG Export Plug-In . SVG Version: 6.00 Build 0)  -->
<svg version="1.1" id="Layer_1" xmlns="http://www.w3.org/2000/svg" xmlns:xlink="http://www.w3.org/1999/xlink" x="0px" y="0px"
	 viewBox="0 0 526.55 380.91" style="enable-background:new 0 0 526.55 380.91;" xml:space="preserve">
<style type="text/css">
	.st0{fill:#F2AA27;}
	.st1{fill:none;}
	.st2{fill:#FFFFFF;}
</style>
<path class="st0" d="M302.85,380.91c-18.2,0-30.7-4-45.2-8.6c-0.5-0.2-1.1-0.3-1.6-0.5c-5.8,1.8-14.9,3.9-25.6,3.3
	c-15.7-0.7-30.2-6.7-41-16.5l-26.5-2.2c-4.9,0.5-15.7,1.4-29.4,1.4c-52.9,0-89.4-12.9-108.5-38.4c-0.7-1-1.5-2-2.1-3
	c-5.3-3.3-9.6-7.3-12.8-11.8c-9.1-13-12.3-28.2-8.7-41.6c3.1-11.7,11.1-21.4,22.7-27.6c1.7-1.4,3.5-2.6,5.5-4
	c11.2-7.5,45.3-30.5,71.9-84.2c13-26.2,31.2-48.1,54.4-65.1c-5-8.2-7.6-16.3-8-24.2c-0.6-15,5.3-29.8,16.2-40.5
	c12.3-12.2,30-18.3,49.6-17.3c16.6,0.9,31.6,8.5,42.2,21.5c4.6,5.6,8.2,12.1,10.9,19.1c11.4-1.3,22.9-1.7,34.5-1.4
	c27,0.7,53.6,7.1,77.8,18.4c9.7-10.7,19.1-18.4,27.9-23c13.7-7.1,31.9-9.7,50-7.2c20.6,2.8,36.5,11.7,44.8,24.9
	c8.9,14.1,11.7,30.5,7.9,46.1c-3.8,15.9-14,29.5-28.6,38.1l-2.5,1.5l0.5,2.6l-15.5,2.6c4.6,11.9,7.5,24.3,8.5,37.1
	c9.8,10.8,31.1,37.5,40.5,73.7l13.9,53.5l-31.8-19c0.1,0.6,0.2,1.1,0.3,1.7v0.1l9.9,55.4l-45.2-32.7c-0.5-0.4-1-0.7-1.3-1
	c-0.5-0.4-3.8-3.1-9.6-3.4c-13.3,20.3-32.1,38.1-52.6,49.3C369.45,372.81,336.25,380.91,302.85,380.91z M256.05,331.41l5.6,1.7
	c2.7,0.8,5.3,1.6,7.7,2.4c12.8,4.1,21.2,6.8,33.5,6.8c27,0,53.7-6.4,74.9-18.1c16.1-8.8,31.6-24,41.3-40.6c0.4-0.7,0.8-1.4,1.2-2.1
	l4-7.4l8.2-2.1c5.1-1.3,10-1.9,14.5-1.9c-1.1-1.8-2.3-3.5-3.6-5.2l-27.3-34.8l44.1,3.6c1.1,0.1,2.2,0.2,3.3,0.4
	c-8.2-14.9-17.5-25.5-21.2-29.5l-2-2l-6.1-5.6l-0.2-8.3c-0.3-17.5-5.5-34.2-15.5-49.7l-15.6-24.2l28.3-5.3c1.1-0.2,2.2-0.4,3.3-0.6
	l-5-28.1l38.8,16.7c2-2.5,3.4-5.3,4.1-8.3c1.3-5.5,0.3-11.2-3.1-16.5c-1.3-2.1-7.1-5.8-17.4-7.2c-9.9-1.4-20.4-0.1-26.9,3.3
	c-6.7,3.5-16.1,12.5-25.6,24.8l-10.3,13.2l-14.5-8.3c-22.4-12.9-48.1-20.1-74.1-20.8c-15-0.4-30,0.8-44.6,3.5l-21,3.9l-1.7-21.3
	c-0.7-8.4-6-24.5-21.1-25.3c-8.9-0.5-16,1.7-20.5,6.2c-3.2,3.2-5,7.4-4.8,11.6c0.1,1.9,2.5,7.9,11.4,16.5l18.2,17.9l-22.2,12.6
	c-25.5,14.5-44.9,35-57.8,60.9c-31.1,62.9-71.7,90.2-85,99.1c-0.7,0.4-1.4,1-2,1.4l-1.8,2.2l-4,1.9c-1.9,0.9-4.2,2.3-4.7,4.1
	c-0.5,1.7,0.1,5.2,3.1,9.5l0,0c0,0,0.9,1,3.6,2.3l5.5,2.7l2.9,5.4c0.7,1.2,1.4,2.4,2.2,3.5c11.1,14.8,38.7,23,77.7,23
	c14.4,0,24.9-1.2,26.9-1.4l1.9-0.2l45.8,3.7l5.2,6.4c4.2,5.2,11.1,8.4,18.9,8.7c6.8,0.3,12.4-1.6,15.8-2.8c1-0.3,1.8-0.6,2.4-0.8
	L256.05,331.41z"/>
<g id="XMLID_67_">
	<path id="XMLID_90_" class="st1" d="M485.05,252.81c-8-3.9-21-7.9-31.7-7.8C464.15,245.31,477.35,249.01,485.05,252.81z"/>
	<path id="XMLID_89_" class="st2" d="M225.25,69.11c-1-8.3-4.1-20.2-13.5-22.5c-14.7-3.7-27.9,5.9-24.2,18.4
		c1.9,6.6,6.1,11.7,9.6,15.1c0.2-0.1,0.4-0.2,0.6-0.3C206.45,75.81,215.65,72.21,225.25,69.11z"/>
	<path id="XMLID_88_" class="st2" d="M423.15,113.51c2.4-0.7,5.1-1.4,8.3-2.1c21.3-5.1,30.8-15.4,28.6-23.5
		c-2.2-8.1-17.6-14.7-32.3-5.9c-7.6,4.6-14.6,11.3-19.6,16.7C413.55,103.31,418.55,108.31,423.15,113.51z"/>
	<path id="XMLID_87_" class="st2" d="M192.35,331.01c0.1,0,5.8,0.7,14.7,0.7c5.6,0,12.9-0.3,21.1-1.3l-8.6-10
		c-10.1,5-19.8,8.5-28.2,10.9L192.35,331.01z"/>
	<path id="XMLID_86_" class="st2" d="M234.95,329.41c3.3-0.6,6.7-1.2,10.1-2.1c8.3-2,15.3-4.9,21-8.1l-19-16.4
		c-7.2,5.9-14.7,10.7-22.2,14.8L234.95,329.41z"/>
	<path id="XMLID_85_" class="st2" d="M161.45,112.41c-13.9,18.4-22.8,38.7-22.8,38.7l12.7-1.7c-33.5,58.6-74,86.4-84.8,94.8
		c16.4-0.6,31.6,3.3,42.6,8.5c2.4,1.1,4.7,2.6,6.9,4.2c9.7-7.4,55.7-42.9,75.8-68.7c22.6-29,35.9-39.4,35.9-39.4l3.5,15.6
		c0,0,66.1-68.4,123.4-64.9c0,0-7.5,4.6-11.6,16.8c0,0,38.9-9.9,78.2,9.5c-6.7-8.3-14.4-16.1-22.8-22.9
		c-26.9-22-61.5-33.3-93.2-35.9c-59,16.6-128.5,91-128.5,91s9.3-16.9,28.7-42c15.6-20.3,37.5-39.3,46.8-47.1
		c-21,3.4-39,9.8-55.8,17.6C181.85,93.41,170.65,102.11,161.45,112.41z"/>
	<path id="XMLID_84_" class="st2" d="M284.45,302.31c1.6-3.1,2.1-6,1.3-8c-1.5-3.8-4.5-5.7-9.1-5.7c-4.5,0-12.3,1.5-24,9.9
		l19.5,16.8C278.35,310.91,282.45,306.21,284.45,302.31z"/>
	<path id="XMLID_83_" class="st2" d="M66.75,268.11c0,4.3,8.3,7.7,18.5,7.7s18.5-3.5,18.5-7.7c0-4.3-8.3-7.7-18.5-7.7
		S66.75,263.91,66.75,268.11z"/>
	<path id="XMLID_82_" d="M259.95,274.31l0.8,0.4c10.5-4.9,33.2-5.4,42.5,4.6c11.6,12.5,1.1,28.2-1.5,30.9h0.8
		c7.7-3.9,12.1-8.7,13.5-15.1c1.9-8.2,0.9-14.2-4.6-20.8C300.85,262.01,276.95,260.81,259.95,274.31z"/>
	<path id="XMLID_79_" class="st2" d="M449.25,192.21v-0.6c-1.2-1.1-15.8-14.6-38-18.3l0,0c-16-2.6-35.3-0.6-55.3,13.1
		c0,0,33.6-2.9,51.6,14.5c0,0-24.9-6.4-45.8,4.6s-48.1,46.4-100.8,44c-44.1-1.9-56.2-4.6-81.7,5.2c-16.5,6.4-37.7,17.1-50.8,23.9
		c-0.3,7.5-5.2,15.1-17.6,21.2c-19.7,9.6-43.2,10.9-60.9,6.9c19.4,20.6,60.2,23.8,83.6,23.8c16.4,0,28.5-1.5,28.6-1.5h0.4l1.1,0.1
		l4-0.6c0.4-0.1,43.6-6.9,75.2-31.2c13.4-10.4,24.8-15.6,33.8-15.6c7.4,0,13,3.7,15.6,10.1c1.5,4,1,8.7-1.6,13.7
		c-6.5,12.4-23.7,23.6-44,28.6c-14.8,3.6-28.8,4.5-38.4,4.6c5.8,5.1,13.8,8.1,23.1,9.1c13.6,1.4,24.4-3.4,24.5-3.4l1.3-0.4l0,0
		c4.4-1.7,18.7-9.8,18.7-9.8s-5.7,9.2-11,12.7c15,4.4,23.5,5.3,38.8,5.3c44,0,98.6-27.9,122.6-68.7c0.1-0.2,0.2-0.4,0.3-0.5v0.1
		c18.9-6.7,31.9-0.9,39.1,3.5c-6.3-24.2-18.2-36.2-18.4-36.3l-4.8-4.6l5.2-0.6c1.8-0.2,3.8-0.2,5.8-0.2c10.7-0.1,23.7,3.9,31.7,7.8
		C474.45,214.21,449.55,192.51,449.25,192.21z M315.95,295.21c-1.4,6.3-5.8,11.2-13.5,15.1h-0.8c2.7-2.7,13.1-18.4,1.5-30.9
		c-9.3-10-32-9.6-42.5-4.6l-0.8-0.4c17-13.5,40.9-12.3,51.4,0.1C316.85,281.01,317.85,287.01,315.95,295.21z"/>
	<path id="XMLID_68_" d="M496.15,267.01l-2.1-8.2c-10.6-40.8-38.9-68.6-40.1-69.7l0,0c-0.2-0.2-0.4-0.4-0.7-0.7
		c-0.4-22-7.2-42.2-18.6-59.8c6.2-1.1,13.6-2.5,22.1-3.9l-2.1-12l16.7,7.2c20-11.9,27.3-36.5,14.2-57.4
		c-11.1-17.6-48.7-21.6-69.5-10.8c-11.7,6.1-23.7,19.5-32,30.1c-24.6-14.1-53.6-22.5-83.2-23.3c-17.1-0.5-33.3,0.9-48.7,3.8
		c-1.6-20.1-14.9-41.8-39.4-43c-30.1-1.5-46.4,18.5-45.6,37.9c0.4,10.8,9.3,21.9,17.1,29.5c-28.9,16.4-50.9,39.6-65.6,69.1
		c-28.9,58.3-66.2,83.4-78.4,91.7c-2.8,1.9-4.4,2.9-5.2,4c-18.6,8.6-20,26.9-9.3,42.1c2.3,3.3,6.1,6.2,10.8,8.5
		c1.1,2,2.3,3.9,3.7,5.8c19.2,25.4,61.3,30.7,93.3,30.7c15.4,0,26.8-1.2,29.2-1.5l35.7,2.9c7.4,9.1,19.2,15.2,33,15.9
		c12.2,0.6,21.6-3.5,24.6-4.3c17.7,5.5,29,10,46.9,10c29,0,59.2-6.8,84.2-20.5c21.6-11.8,38.8-31,48.7-47.8c0.5-0.9,1-1.7,1.5-2.6
		c20.8-5.2,33.7,6.7,33.8,6.8l6.6,4.8l-1.5-8.5c-3.9-20.7-11.7-33.3-17.6-40.8c14.1,1.2,30.2,9.5,30.4,9.7L496.15,267.01z
		 M427.75,82.01c14.7-8.8,30.1-2.2,32.3,5.9c2.2,8.1-7.3,18.4-28.6,23.5c-3.1,0.8-5.9,1.5-8.3,2.1c-4.6-5.2-9.6-10.2-15-14.8
		C413.15,93.31,420.15,86.61,427.75,82.01z M252.45,68.91c-9.3,7.7-31.2,26.8-46.8,47.1c-19.4,25.2-28.7,42-28.7,42
		s69.5-74.4,128.5-91c31.7,2.6,66.3,14,93.2,35.9c8.4,6.9,16.1,14.6,22.8,22.9c-39.2-19.4-78.2-9.5-78.2-9.5
		c4.1-12.2,11.6-16.8,11.6-16.8c-57.4-3.5-123.4,64.9-123.4,64.9l-3.5-15.6c0,0-13.3,10.4-35.9,39.4c-20.1,25.8-66.1,61.3-75.8,68.7
		c-2.2-1.6-4.5-3.1-6.9-4.2c-11-5.3-26.2-9.2-42.6-8.5c10.8-8.4,51.2-36.2,84.8-94.8l-12.7,1.7c0,0,8.9-20.3,22.8-38.7
		c9.2-10.3,20.4-19,35.2-25.8C213.35,78.81,231.35,72.41,252.45,68.91z M103.85,268.11c0,4.3-8.3,7.7-18.5,7.7s-18.5-3.5-18.5-7.7
		c0-4.3,8.3-7.7,18.5-7.7S103.85,263.91,103.85,268.11z M187.55,64.91c-3.7-12.5,9.5-22,24.2-18.4c9.4,2.3,12.5,14.2,13.5,22.5
		c-9.6,3-18.7,6.6-27.4,10.6c-0.2,0.1-0.4,0.2-0.6,0.3C193.65,76.71,189.45,71.51,187.55,64.91z M272.15,315.31l-19.5-16.8
		c11.7-8.4,19.6-9.9,24-9.9c4.5,0,7.6,1.9,9.1,5.7c0.8,2,0.3,4.8-1.3,8C282.45,306.21,278.35,310.91,272.15,315.31z M247.05,302.81
		l19,16.4c-5.7,3.2-12.7,6.1-21,8.1c-3.4,0.8-6.8,1.5-10.1,2.1l-10.1-11.8C232.35,313.61,239.85,308.71,247.05,302.81z
		 M219.55,320.41l8.6,10c-8.2,1-15.6,1.3-21.1,1.3c-8.8,0-14.6-0.7-14.7-0.7l-1,0.3C199.75,328.91,209.55,325.41,219.55,320.41z
		 M453.35,245.01c-2-0.1-4,0-5.8,0.2l-5.2,0.6l4.8,4.6c0.2,0.2,12,12.2,18.4,36.3c-7.1-4.4-20.2-10.3-39.1-3.5v-0.1
		c-0.1,0.2-0.2,0.4-0.3,0.5c-24,40.7-78.5,68.7-122.6,68.7c-15.3,0-23.8-1-38.8-5.3c5.4-3.6,11-12.7,11-12.7s-14.3,8.1-18.7,9.8l0,0
		l-1.3,0.4c-0.1,0-10.9,4.9-24.5,3.4c-9.3-1-17.2-4.1-23.1-9.1c9.5-0.1,23.6-1,38.4-4.6c20.2-5,37.5-16.2,44-28.6
		c2.6-5,3.2-9.7,1.6-13.7c-2.5-6.4-8.2-10.1-15.6-10.1c-9,0-20.4,5.2-33.8,15.6c-31.6,24.3-74.8,31.1-75.2,31.2l-4,0.6l-1.1-0.1
		h-0.4c-0.1,0-12.2,1.5-28.6,1.5c-23.4,0-64.1-3.2-83.6-23.8c17.7,4,41.2,2.7,60.9-6.9c12.4-6.1,17.4-13.7,17.6-21.2
		c13-6.8,34.3-17.5,50.8-23.9c25.5-9.9,37.6-7.2,81.7-5.2c52.7,2.3,80-33,100.8-44c20.9-11,45.8-4.6,45.8-4.6
		c-18-17.4-51.6-14.5-51.6-14.5c20-13.7,39.4-15.6,55.3-13.1l0,0c22.1,3.6,36.8,17.2,38,18.3v0.6c0.3,0.3,25.2,22,35.8,60.6
		C477.35,249.01,464.15,245.31,453.35,245.01z"/>
</g>
<path id="XMLID_59_" d="M278.85,177.61c-11.2,0-20.3,9.1-20.3,20.3s9.1,20.3,20.3,20.3c10.6,0,19.2-8.1,20.2-18.4l-20.2-1.8
	l12.5-15.9C287.95,179.21,283.65,177.61,278.85,177.61z"/>
<path id="XMLID_60_" class="st2" d="M243.85,197.81c0,19.4,15.7,35.1,35.1,35.1s35.1-15.7,35.1-35.1s-15.7-35.1-35.1-35.1
	S243.85,178.41,243.85,197.81z M299.05,199.61c-0.9,10.3-9.6,18.4-20.2,18.4c-11.2,0-20.3-9.1-20.3-20.3s9.1-20.3,20.3-20.3
	c4.7,0,9.1,1.6,12.5,4.3l-12.5,15.9L299.05,199.61z"/>
</svg>
