<svg xmlns="http://www.w3.org/2000/svg" viewBox="-1743 -1757 347.331 249.29">
  <defs>
    <style>
      .cls-1 {
        fill: none;
      }

      .cls-2 {
        fill: #fff;
      }
    </style>
  </defs>
  <g id="Privacy_badger_logo_no_outline" data-name="Privacy badger logo no outline" transform="translate(-1743 -1757)">
    <g id="XMLID_10_" transform="translate(0 0)">
      <path id="XMLID_33_" class="cls-1" d="M305.464,152.51c-5.822-2.8-15.227-5.71-23.064-5.71A62.373,62.373,0,0,1,305.464,152.51Z" transform="translate(33.806 17.286)"/>
      <path id="XMLID_32_" class="cls-2" d="M136.988,34.221c-.784-6.046-3.023-14.667-9.853-16.459-10.636-2.687-20.265,4.255-17.69,13.324A25.886,25.886,0,0,0,116.5,42.058c.112-.112.336-.112.448-.224A212.271,212.271,0,0,1,136.988,34.221Z" transform="translate(13.064 1.779)"/>
      <path id="XMLID_31_" class="cls-2" d="M263.972,64.076c1.791-.448,3.695-1.008,6.046-1.567,15.451-3.695,22.393-11.2,20.825-17.13-1.567-5.822-12.876-10.637-23.512-4.255A70.82,70.82,0,0,0,253,53.327,110.642,110.642,0,0,1,263.972,64.076Z" transform="translate(30.288 4.282)"/>
      <path id="XMLID_30_" class="cls-2" d="M112.672,203.625a92.536,92.536,0,0,0,10.637.56,121.676,121.676,0,0,0,15.451-1.008l-6.27-7.278A131.213,131.213,0,0,1,112,203.849Z" transform="translate(13.42 23.16)"/>
      <path id="XMLID_29_" class="cls-2" d="M141.078,203.782c2.351-.448,4.814-.9,7.39-1.567a60.9,60.9,0,0,0,15.339-5.934L149.923,184.3A106.23,106.23,0,0,1,133.8,195.048Z" transform="translate(16.028 21.773)"/>
      <path id="XMLID_28_" class="cls-2" d="M99.869,64.129A162.108,162.108,0,0,0,83.3,92.344l9.293-1.232A216.591,216.591,0,0,1,30.9,160.082a66.321,66.321,0,0,1,31.014,6.27,28.614,28.614,0,0,1,5.038,3.023c7.054-5.374,40.531-31.238,55.2-50.048,16.459-21.049,26.2-28.663,26.2-28.663l2.575,11.42s48.144-49.824,89.906-47.248c0,0-5.486,3.359-8.4,12.2,0,0,28.327-7.166,56.877,6.942A116.649,116.649,0,0,0,272.74,57.3c-19.594-16.011-44.785-24.3-67.85-26.2-42.994,12.092-93.6,66.282-93.6,66.282s6.83-12.316,20.937-30.566c11.308-14.779,27.319-28.663,34.037-34.261a150.462,150.462,0,0,0-40.643,12.876A73.994,73.994,0,0,0,99.869,64.129Z" transform="translate(3.718 3.445)"/>
      <path id="XMLID_27_" class="cls-2" d="M174.964,185.165c1.232-2.239,1.568-4.367,1.008-5.822-1.12-2.8-3.247-4.143-6.606-4.143-3.247,0-8.957,1.12-17.466,7.166l14.219,12.316A29.282,29.282,0,0,0,174.964,185.165Z" transform="translate(18.194 20.684)"/>
      <ellipse id="XMLID_26_" class="cls-2" cx="13.548" cy="5.598" rx="13.548" ry="5.598" transform="translate(34.618 175.395)"/>
      <path id="XMLID_25_" d="M156.6,166.653l.56.336c7.725-3.583,24.184-3.919,30.9,3.359,8.4,9.181.784,20.6-1.12,22.5h.56c5.6-2.8,8.845-6.382,9.853-10.972,1.344-5.934.672-10.3-3.359-15.115C186.382,157.7,169.028,156.8,156.6,166.653Z" transform="translate(18.756 18.819)"/>
      <path id="XMLID_22_" class="cls-2" d="M310.78,114.048V113.6a57.252,57.252,0,0,0-27.655-13.324h0c-11.644-1.9-25.751-.448-40.307,9.517,0,0,24.52-2.127,37.508,10.525,0,0-18.138-4.591-33.365,3.359-15.227,8.061-35.044,33.7-73.448,32.021-32.133-1.456-40.978-3.359-59.452,3.807-11.98,4.59-27.431,12.428-36.948,17.354-.224,5.486-3.807,10.972-12.876,15.451-14.331,6.942-31.462,7.949-44.337,5.038,14.107,15,43.778,17.354,60.8,17.354a186.392,186.392,0,0,0,20.825-1.12h.336l.784.112,2.911-.448c.336,0,31.686-5.038,54.75-22.729,9.741-7.5,18.026-11.308,24.632-11.308,5.374,0,9.517,2.687,11.308,7.39,1.12,2.911.672,6.27-1.232,9.965-4.7,9.069-17.242,17.242-32.021,20.825A124.876,124.876,0,0,1,135,220.749c4.255,3.695,10.077,5.934,16.794,6.606a38.646,38.646,0,0,0,17.8-2.463l.9-.336h0c3.247-1.232,13.548-7.054,13.548-7.054s-4.143,6.718-8.061,9.293a87.251,87.251,0,0,0,28.215,3.919c32.021,0,71.768-20.377,89.235-50.048.112-.112.112-.224.224-.448v.112c13.771-4.926,23.288-.672,28.439,2.575-4.591-17.578-13.212-26.311-13.324-26.423l-3.471-3.359,3.807-.448a26.292,26.292,0,0,1,4.255-.112c7.837,0,17.242,2.8,23.064,5.71C329.142,130.059,311,114.16,310.78,114.048Zm-97.072,74.9c-1.008,4.59-4.255,8.173-9.853,10.972h-.56c1.9-1.9,9.517-13.324,1.12-22.5-6.718-7.277-23.288-6.942-30.9-3.359l-.56-.336c12.428-9.853,29.782-8.957,37.4.112C214.38,178.651,215.052,183.018,213.708,188.952Z" transform="translate(2.402 11.635)"/>
      <path id="XMLID_11_" d="M347.312,180.455l-1.567-5.934c-7.725-29.67-28.327-49.936-29.222-50.719h0a2.442,2.442,0,0,0-.56-.448A82.967,82.967,0,0,0,302.415,79.8c4.479-.784,9.853-1.791,16.123-2.8l-1.568-8.733,12.2,5.262c14.555-8.621,19.929-26.647,10.3-41.762-8.061-12.876-35.492-15.787-50.607-7.837-8.509,4.479-17.242,14.219-23.288,21.945a129.459,129.459,0,0,0-60.572-17.018,164.3,164.3,0,0,0-35.38,2.8C168.395,16.989,158.766,1.2,140.964.306c-21.945-1.12-33.7,13.548-33.141,27.543.336,7.837,6.83,15.9,12.428,21.5a116.4,116.4,0,0,0-47.7,50.383c-21.049,42.434-48.144,60.8-57.1,66.73a16.555,16.555,0,0,0-3.807,2.911c-13.548,6.27-14.555,19.594-6.83,30.678a21.74,21.74,0,0,0,7.837,6.27,33.929,33.929,0,0,0,2.687,4.255c13.883,18.474,44.561,22.281,67.85,22.281a187.9,187.9,0,0,0,21.273-1.12l25.975,2.127c5.374,6.718,14,11.084,24.072,11.532,8.845.448,15.787-2.463,17.914-3.135,12.876,4.031,21.049,7.278,34.149,7.278,21.049,0,43.106-4.926,61.356-14.891,15.787-8.621,28.215-22.5,35.492-34.821a16.866,16.866,0,0,1,1.12-1.9c15.227-3.807,24.52,4.926,24.632,4.926l4.814,3.471-1.12-6.158c-2.8-15.115-8.509-24.3-12.876-29.67,10.3.9,21.945,6.942,22.169,7.054Zm-49.824-134.8c10.637-6.382,21.945-1.567,23.512,4.255,1.567,5.934-5.374,13.324-20.825,17.13-2.239.56-4.255,1.12-6.046,1.567a110.629,110.629,0,0,0-10.972-10.748A74.57,74.57,0,0,1,297.488,45.652ZM169.85,36.135c-6.83,5.6-22.729,19.482-34.037,34.261-14.107,18.362-20.937,30.566-20.937,30.566s50.607-54.19,93.6-66.282c23.064,1.9,48.256,10.189,67.85,26.2A111.1,111.1,0,0,1,292.9,77.561c-28.551-14.107-56.877-6.942-56.877-6.942,2.911-8.845,8.4-12.2,8.4-12.2-41.762-2.575-89.906,47.248-89.906,47.248l-2.575-11.42s-9.741,7.614-26.2,28.663c-14.667,18.81-48.144,44.673-55.2,50.048a23.144,23.144,0,0,0-5.038-3.023,68.381,68.381,0,0,0-31.014-6.27A218,218,0,0,0,96.179,94.691l-9.293,1.232a162.108,162.108,0,0,1,16.571-28.215A77.811,77.811,0,0,1,129.1,48.9,156.628,156.628,0,0,1,169.85,36.135Zm39.3,100.655A19.929,19.929,0,1,1,189.22,116.86,19.9,19.9,0,0,1,209.149,136.79ZM61.694,181.239c0,3.135-6.046,5.6-13.548,5.6s-13.548-2.463-13.548-5.6,6.046-5.6,13.548-5.6S61.694,178.1,61.694,181.239ZM122.6,33.224c-2.687-9.069,6.942-16.011,17.69-13.324,6.83,1.679,9.069,10.413,9.853,16.459a175.343,175.343,0,0,0-19.929,7.725c-.112.112-.336.112-.448.224A26.112,26.112,0,0,1,122.6,33.224Zm61.58,182.388L169.962,203.3c8.509-6.046,14.219-7.166,17.466-7.166,3.359,0,5.486,1.344,6.606,4.143.56,1.456.224,3.471-1.008,5.822C191.683,208.894,188.772,212.365,184.182,215.612Zm-18.25-9.181,13.883,11.98a63.573,63.573,0,0,1-15.339,5.934c-2.463.56-4.926,1.12-7.39,1.567l-7.39-8.621A110.933,110.933,0,0,0,165.932,206.431ZM145.89,219.194l6.27,7.278a120.455,120.455,0,0,1-15.451,1.008,87.8,87.8,0,0,1-10.637-.56l-.672.224A109.111,109.111,0,0,0,145.89,219.194Zm170.3-54.862c-1.456,0-2.911,0-4.255.112l-3.807.448,3.471,3.359c.112.112,8.733,8.845,13.324,26.423-5.15-3.247-14.667-7.5-28.439-2.575v-.112c-.112.112-.112.224-.224.448-17.466,29.67-57.213,50.048-89.235,50.048-11.084,0-17.242-.672-28.215-3.919,3.919-2.575,8.061-9.293,8.061-9.293s-10.413,5.934-13.548,7.054h0l-.9.336a37.758,37.758,0,0,1-17.8,2.463c-6.718-.672-12.54-2.911-16.794-6.606a119.275,119.275,0,0,0,27.991-3.359c14.779-3.583,27.319-11.756,32.021-20.825,1.9-3.695,2.351-7.054,1.232-9.965-1.791-4.7-5.934-7.39-11.308-7.39-6.606,0-14.891,3.807-24.632,11.308-23.064,17.69-54.414,22.617-54.75,22.729l-2.911.448-.784-.112h-.336a186.385,186.385,0,0,1-20.825,1.12c-17.018,0-46.689-2.351-60.8-17.354,12.876,2.911,30.006,2.015,44.337-5.038,9.069-4.367,12.652-9.965,12.876-15.451,9.517-4.926,24.968-12.764,36.948-17.354,18.586-7.166,27.431-5.262,59.452-3.807,38.4,1.679,58.221-24.072,73.448-32.021,15.227-8.061,33.365-3.359,33.365-3.359-13.1-12.652-37.508-10.525-37.508-10.525,14.555-9.965,28.663-11.42,40.307-9.517h0a57.252,57.252,0,0,1,27.655,13.324v.448c.224.224,18.362,16.011,26.087,44.113C333.652,167.243,324.024,164.556,316.186,164.332Z" transform="translate(0.019 -0.246)"/>
    </g>
    <path id="XMLID_7_" class="cls-2" d="M151.1,124.329A19.929,19.929,0,1,0,171.029,104.4,19.9,19.9,0,0,0,151.1,124.329Zm31.462,1.008A11.535,11.535,0,1,1,178.2,115.26l-7.166,9.069Z" transform="translate(18.098 12.214)"/>
    <path id="XMLID_6_" d="M170.132,111.9a11.532,11.532,0,1,0,11.532,12.54l-11.532-1.008,7.166-9.069A11.57,11.57,0,0,0,170.132,111.9Z" transform="translate(18.995 13.111)"/>
    <path id="XMLID_3_" class="cls-2" d="M146.1,118.828A25.528,25.528,0,1,0,171.628,93.3,25.516,25.516,0,0,0,146.1,118.828Zm40.195,1.344a14.755,14.755,0,1,1-5.6-12.988l-9.069,11.644Z" transform="translate(17.5 10.886)"/>
    <path id="XMLID_2_" d="M170.479,103a14.779,14.779,0,1,0,14.667,16.123l-14.667-1.344,9.069-11.644A14.151,14.151,0,0,0,170.479,103Z" transform="translate(18.648 12.046)"/>
  </g>
</svg>
