<svg xmlns="http://www.w3.org/2000/svg" viewBox="620 -1124 61.5 61.5">
  <defs>
    <style>
      .cls-1 {
        fill: #f06a0a;
      }

      .cls-2 {
        fill: #fff;
      }
    </style>
  </defs>
  <g id="twitter" transform="translate(296 -1877)">
    <g id="XMLID_48_" transform="translate(324 753)">
      <path id="XMLID_49_" class="cls-1" d="M0,3.2V64.7H61.5V3.2Z" transform="translate(0 -3.2)"/>
    </g>
    <path id="XMLID_2_" class="cls-2" d="M50.067,29.421v1.07c0,10.291-7.9,22.229-22.229,22.229A21.808,21.808,0,0,1,15.9,49.263a13.955,13.955,0,0,0,1.894.082,15.463,15.463,0,0,0,9.715-3.375,7.71,7.71,0,0,1-7.245-5.434,8.157,8.157,0,0,0,1.482.165,5.684,5.684,0,0,0,2.058-.329,7.856,7.856,0,0,1-6.257-7.657v-.082a7.36,7.36,0,0,0,3.54.988,8.03,8.03,0,0,1-3.458-6.586,8.359,8.359,0,0,1,1.07-3.952,21.945,21.945,0,0,0,16.137,8.151,6.42,6.42,0,0,1-.247-1.811,7.805,7.805,0,0,1,13.5-5.351,17.075,17.075,0,0,0,4.94-1.894,7.731,7.731,0,0,1-3.376,4.281A15.417,15.417,0,0,0,54.1,25.222,15.138,15.138,0,0,1,50.067,29.421Z" transform="translate(321.19 746.548)"/>
  </g>
</svg>
