<?xml version="1.0" encoding="UTF-8"?>
<svg width="99px" height="26px" viewBox="0 0 99 26" version="1.1" xmlns="http://www.w3.org/2000/svg" xmlns:xlink="http://www.w3.org/1999/xlink">
    <!-- Generator: Sketch 59.1 (86144) - https://sketch.com -->
    <title>Pinterest</title>
    <desc>Created with Sketch.</desc>
    <g id="Pinterest" stroke="none" stroke-width="1" fill="none" fill-rule="evenodd">
        <g id="Outline" transform="translate(0.000000, -4.000000)">
            <rect id="Rectangle" fill="#BD081C" fill-rule="evenodd" x="1.13686838e-13" y="4.57142857" width="98.694311" height="24.6857143" rx="1.46285714"></rect>
            <path d="M75.9289886,5.63809524 L61.0162228,28.1904762 L93.0157606,28.1904762 L93.0157606,5.63809524 L75.9289886,5.63809524 Z" id="Rectangle-2" stroke="#AA0000" stroke-width="2.13333333" fill="#BB0000" fill-rule="evenodd"></path>
            <path d="M96.3876321,4.57136308 L96.3876321,28.7998568 L90.8958284,28.8009178 C90.6664784,28.6222606 90.457107,28.4243071 90.2704253,28.2094735 L90.122038,28.0289981 L86.114738,27.6369178 C85.0210714,27.7378594 83.9226286,27.7771609 82.8247043,27.7546328 C79.2263663,27.6955015 74.4971909,27.0338887 72.4046739,24.1660535 C72.2540402,23.956543 72.119314,23.7361924 72.001607,23.5068195 C71.5320672,23.2766896 71.1234953,22.9406465 70.8085519,22.5255531 C69.646487,20.806449 69.8399544,18.7660603 71.9510539,17.839091 C72.1275404,17.6656334 72.3284745,17.518535 72.5475415,17.4024185 C73.9481736,16.5159215 78.1867804,13.76869 81.5596526,7.31580336 C82.0607386,6.34519228 82.647692,5.42685392 83.3110524,4.57036308 L96.3876321,4.57136308 Z" id="Combined-Shape" fill="#FFCC00" fill-rule="evenodd"></path>
            <g id="Logo" transform="translate(72.037623, 0.457143)" fill-rule="evenodd" stroke-width="1">
                <g>
                    <g id="XMLID_10_">
                        <path d="M38.2163547,18.544635 C37.5608705,18.238827 36.5019855,17.9210051 35.6196376,17.9210051 C36.5184069,17.965554 37.3999715,18.1772714 38.2163547,18.544635 Z" id="XMLID_33_"></path>
                        <path d="M16.9127819,3.93181736 C16.8245134,3.27149048 16.57243,2.32992944 15.8034577,2.13421231 C14.6059776,1.84074583 13.521873,2.59893127 13.8117857,3.5894216 C13.9667624,4.04809092 14.2402126,4.46063268 14.6060902,4.78775215 C14.6187,4.77551983 14.6439196,4.77551983 14.6565294,4.76328751 C15.3936974,4.44944436 16.1467416,4.17193385 16.9127819,3.93181736 L16.9127819,3.93181736 Z" id="XMLID_32_" fill="#FFFFFF" fill-rule="nonzero"></path>
                        <path d="M33.1487934,7.46586586 C33.3504375,7.41693658 33.564804,7.35577497 33.8294971,7.29472259 C35.5690859,6.89116522 36.350668,6.07149052 36.1741309,5.42383283 C35.9977063,4.78797059 34.7244548,4.26209002 33.5269747,4.95911386 C32.9304094,5.33175206 32.3877877,5.77996882 31.9134839,6.29189073 C32.3527914,6.65498342 32.7655556,7.04725346 33.1487934,7.46586586 Z" id="XMLID_31_" fill="#FFFFFF" fill-rule="nonzero"></path>
                        <path d="M14.2151865,24.7688111 C14.6128424,24.8114877 15.0127022,24.8319088 15.4127793,24.8299727 C15.9944635,24.8291399 16.5755026,24.7923685 17.152368,24.7198818 L16.4464447,23.9249994 C15.7038569,24.2764992 14.9321783,24.5669433 14.1395278,24.7932757 L14.2151865,24.7688111 Z" id="XMLID_30_" fill="#FFFFFF" fill-rule="nonzero"></path>
                        <path d="M17.7069738,24.634474 C17.9716669,24.5855447 18.2489698,24.5361786 18.5389951,24.4633307 C19.142216,24.324045 19.7231722,24.1060259 20.265974,23.8152362 L18.7028098,22.5067055 C18.1358558,22.9508224 17.5282462,23.3437452 16.8875623,23.6805714 L17.7069738,24.634474 Z" id="XMLID_29_" fill="#FFFFFF" fill-rule="nonzero"></path>
                        <path d="M11.6814059,7.38023962 C10.9540393,8.34376583 10.3290359,9.37621093 9.81594438,10.4618015 L10.8622196,10.3272459 C9.1333517,13.2942157 6.76399817,15.8637537 3.91636182,17.8599527 C5.12019823,17.8115875 6.31822118,18.0465377 7.4081491,18.5447442 C7.60839848,18.6356271 7.79847207,18.7462647 7.97536469,18.8749077 C8.76955659,18.2879747 12.5386468,15.4631824 14.1901921,13.4088078 C16.043269,11.109896 17.1399834,10.2783167 17.1399834,10.2783167 L17.4298961,11.5255765 C17.4298961,11.5255765 22.8503064,6.08394128 27.5521837,6.36528465 C27.5521837,6.36528465 26.9345289,6.73214505 26.6064491,7.69773387 C26.6064491,7.69773387 29.7957139,6.91508378 33.0100857,8.45591931 C32.45305,7.78934877 31.8280183,7.17907552 31.1445116,6.63439571 C28.938473,4.88571994 26.1022824,3.98041899 23.5054528,3.77290641 C18.6648679,5.09356017 12.9672672,11.0120375 12.9672672,11.0120375 C12.9672672,11.0120375 13.7362395,9.66691906 15.3245107,7.67370609 C16.5976496,6.05958585 18.4002874,4.54321496 19.1566499,3.93181736 C17.5702757,4.18750876 16.0295148,4.66102111 14.580758,5.33809737 C13.4730585,5.80675797 12.483729,6.50358659 11.6814059,7.38023962 Z" id="XMLID_28_" fill="#FFFFFF" fill-rule="nonzero"></path>
                        <path d="M21.7659767,22.4822409 C21.9046844,22.2377037 21.9425138,22.0052896 21.8794648,21.8463786 C21.7533669,21.5405706 21.5138934,21.393892 21.1357121,21.393892 C20.7701407,21.393892 20.1272663,21.5162152 19.1692597,22.1765421 L20.7701407,23.5216605 C21.1781356,23.2518986 21.5184573,22.8966824 21.7659767,22.4822409 L21.7659767,22.4822409 Z" id="XMLID_27_" fill="#FFFFFF" fill-rule="nonzero"></path>
                        <ellipse id="XMLID_26_" fill="#FFFFFF" fill-rule="nonzero" cx="5.44169664" cy="19.7675394" rx="1.52533482" ry="1"></ellipse>
                        <path d="M19.7616948,20.256723 L19.8247438,20.29342 C20.6944819,19.9020949 22.5475588,19.865398 23.3036961,20.6602804 C24.2494307,21.663003 23.3919647,22.9101537 23.1775982,23.1176662 L23.2406471,23.1176662 C23.8711369,22.8118582 24.2364832,22.4206424 24.3499713,21.9193357 C24.5012889,21.2712411 24.4256301,20.7943991 23.9717901,20.2685185 C23.1147744,19.2789019 21.1609317,19.1806065 19.7616948,20.256723 Z" id="XMLID_25_" fill="#000000" fill-rule="nonzero"></path>
                        <path d="M35.2791732,13.7267389 L35.2791732,13.6778096 C34.3972094,12.9268384 33.3206401,12.4236811 32.1655672,12.2226003 L32.1655672,12.2226003 C30.8545989,12.0150878 29.2663277,12.1736711 27.6275047,13.2620199 C27.6275047,13.2620199 30.388149,13.0297151 31.8504349,14.4115304 C31.8504349,14.4115304 29.8083237,13.9101145 28.0939545,14.7783908 C26.3795853,15.6587903 24.1484398,18.4590088 19.8246312,18.2756332 C16.2068586,18.116613 15.2110226,17.9087728 13.1310819,18.6914229 C11.7822843,19.1927296 10.0426955,20.0487736 8.97120072,20.5867773 C8.94598113,21.1859425 8.54258028,21.7851078 7.52152467,22.2742914 C5.90803387,23.0324769 3.97929821,23.1424585 2.52973475,22.8245274 C4.11800595,24.4627846 7.45858828,24.7198818 9.37505191,24.7198818 C10.1583373,24.7215866 10.9411069,24.6807483 11.7196856,24.5975586 L11.757515,24.5975586 L11.8457836,24.6097909 L12.1735257,24.5608616 C12.211355,24.5608616 15.7409717,24.0106257 18.3376887,22.0784651 C19.4344031,21.2593365 20.3671902,20.8434376 21.1109429,20.8434376 C21.7159879,20.8434376 22.1824377,21.136904 22.3840818,21.6505523 C22.5101797,21.9684834 22.4597406,22.3353438 22.2453741,22.7389012 C21.716213,23.7293915 20.3041412,24.6220232 18.6402112,25.0133483 C17.6073067,25.2506926 16.5500162,25.3738002 15.4885506,25.3803179 C15.9676102,25.7838753 16.6230944,26.0284125 17.3793443,26.1018064 C18.0598724,26.1661359 18.74645,26.0739775 19.383401,25.8328046 L19.4847297,25.7961076 L19.4847297,25.7961076 C19.8503012,25.6615521 21.0100645,25.0256898 21.0100645,25.0256898 C21.0100645,25.0256898 20.5436147,25.7594106 20.1024971,26.0406448 C21.1300612,26.3511667 22.2032458,26.4957674 23.2791521,26.4686668 C26.8843149,26.4686668 31.3593284,24.243149 33.3258935,21.0025669 C33.3385033,20.9903346 33.3385033,20.9781023 33.351113,20.9536377 L33.351113,20.96587 C34.9015549,20.4278663 35.9730497,20.8924761 36.5529876,21.2471041 C36.0360986,19.3272851 35.0654822,18.3734917 35.0528724,18.3612594 L34.6620814,17.994399 L35.0907018,17.9454697 C35.2497851,17.9288393 35.4099965,17.9247485 35.5697614,17.9332374 C36.4521093,17.9332374 37.5109943,18.2390454 38.1664784,18.5568673 C37.346504,15.4754147 35.3039424,13.7389712 35.2791732,13.7267389 Z M24.3500839,21.9071034 C24.2365958,22.4084101 23.8710243,22.7997351 23.2407597,23.1054339 L23.1777108,23.1054339 C23.3916269,22.8979213 24.2492056,21.6502246 23.3038087,20.6480481 C22.5474462,19.8532749 20.6818721,19.8898626 19.8248564,20.2811877 L19.7618074,20.2444907 C21.1610443,19.1683741 23.114887,19.2662327 23.9725782,20.256723 C24.4257427,20.7824944 24.5014015,21.2594457 24.3500839,21.9075402 L24.3500839,21.9071034 Z" id="XMLID_22_" fill="#FFFFFF" fill-rule="nonzero"></path>
                        <path d="M39.1239221,19.6819132 L38.9474976,19.0338186 C38.0777595,15.7933458 35.7582328,13.5799511 35.657467,13.494434 L35.657467,13.494434 C35.6390475,13.4752033 35.6178021,13.4587157 35.5944181,13.4455048 C35.554092,11.7527889 35.0256758,10.104893 34.0690832,8.68866106 C34.5733624,8.60303481 35.1784074,8.49305314 35.8843308,8.38285304 L35.7077936,7.42905968 L37.0813606,8.00376032 C38.7200709,7.06219928 39.3251159,5.09345095 38.2410113,3.44263375 C37.3334439,2.03635374 34.2450574,1.71842262 32.5432981,2.58669895 C31.5852914,3.07588256 30.6020652,4.13965759 29.9213615,4.98346928 C27.8402914,3.82933319 25.4979019,3.19092778 23.1017142,3.12481185 C21.7664451,3.0869259 20.4308738,3.18945995 19.1183701,3.43061986 C18.9801127,1.82862272 17.8960081,0.10419316 15.8917263,0.00655302893 C13.4209946,-0.115770178 12.0975291,1.48622696 12.1604655,3.01472096 C12.1982949,3.87065575 12.9294378,4.75127363 13.5597024,5.36288966 C11.2345584,6.62489792 9.36117701,8.54441815 8.18928085,10.8655773 C5.81942755,15.5000978 2.7688705,17.5059799 1.76053726,18.1536376 C1.60252366,18.2388868 1.45813768,18.3459857 1.33191683,18.4715687 C-0.19341799,19.1563603 -0.306793555,20.6115695 0.562944522,21.8221324 C0.797975006,22.1140319 1.10014258,22.3485446 1.44529239,22.5069239 C1.5341354,22.6688813 1.6352543,22.8242147 1.74781488,22.9716429 C3.3108665,24.9893205 6.76482439,25.4051102 9.38687359,25.4051102 C10.1869734,25.4083046 10.9866158,25.3674646 11.7819465,25.282787 L14.7064056,25.5150919 C15.3114506,26.2488127 16.2826299,26.7256548 17.4166108,26.774584 C18.4124468,26.8235133 19.1940289,26.5055822 19.4335024,26.4321883 C20.8831785,26.8724426 21.8033557,27.2270707 23.2782514,27.2270707 C25.6481047,27.2270707 28.1314461,26.689067 30.1861671,25.6007181 C31.9635853,24.6591571 33.3628221,23.1433323 34.182121,21.7976678 C34.2194414,21.7259022 34.2615641,21.6565831 34.308219,21.5901552 C36.0225881,21.1743655 37.0688633,22.1281589 37.0814731,22.1281589 L37.6234691,22.5072516 L37.4973712,21.8346924 C37.1821263,20.1838752 36.5393646,19.1807157 36.0476951,18.5942196 C37.2073459,18.692515 38.5184268,19.352405 38.5436464,19.3646374 L39.1239221,19.6819132 Z M33.5143649,4.95944151 C34.7119576,4.26241767 35.9850965,4.78829824 36.1615211,5.42416048 C36.3379456,6.07225504 35.5564761,6.87936977 33.8168873,7.29505024 C33.564804,7.35621184 33.3378277,7.41737345 33.1361836,7.46619351 C32.7529453,7.04761554 32.3401809,6.65538186 31.9008741,6.2923276 C32.3784866,5.78358754 32.9206359,5.33561417 33.5143649,4.95911386 L33.5143649,4.95944151 Z M19.1439275,3.91969425 C18.3749552,4.53131029 16.5849273,6.04746275 15.3117883,7.66158299 C13.7235171,9.66702828 12.9545448,10.9999144 12.9545448,10.9999144 C12.9545448,10.9999144 18.6522581,5.08143707 23.4927305,3.7607833 C26.0894475,3.96829589 28.9257506,4.87359683 31.1317892,6.6222726 C31.8184833,7.16381133 32.4439942,7.77451491 32.9978136,8.44412386 C29.7833292,6.90339754 26.594177,7.68593841 26.594177,7.68593841 C26.9219191,6.71991273 27.5399116,6.3534892 27.5399116,6.3534892 C22.8380344,6.07225504 17.4176241,11.513781 17.4176241,11.513781 L17.1277114,10.2665212 C17.1277114,10.2665212 16.030997,11.0981006 14.1779201,13.3970123 C12.5265999,15.4513869 8.75750973,18.27607 7.96309266,18.8631122 C7.78924739,18.7301295 7.59864003,18.6191812 7.39587707,18.5329488 C6.3031449,18.0430045 5.10720164,17.8084622 3.90408979,17.8481572 C6.74826813,15.8481878 9.11675556,13.2792736 10.8494972,10.3150136 L9.803222,10.4495691 C10.3163849,9.3639695 10.941464,8.33152408 11.6689087,7.36800729 C12.4752302,6.49778649 13.4581141,5.79846501 14.5559888,5.31385116 C16.0125193,4.64813028 17.5561752,4.17905285 19.1439275,3.91969425 Z M23.5686144,14.9129464 C23.5685522,16.1150146 22.5639841,17.0894257 21.3248215,17.0894257 C20.085659,17.0894257 19.0811037,16.1149418 19.0811037,14.9128736 C19.0811037,13.7108053 20.0855839,12.7363089 21.3247465,12.7362463 C21.9201127,12.7354063 22.4913423,12.9644693 22.9123197,13.3728652 C23.333297,13.7812611 23.5694,14.3354025 23.5685018,14.9129464 L23.5686144,14.9129464 Z M6.96691887,19.7675394 C6.96691887,20.1099352 6.28621513,20.3791555 5.44158405,20.3791555 C4.59695298,20.3791555 3.91624923,20.1101536 3.91624923,19.7675394 C3.91624923,19.4249252 4.59695298,19.1559234 5.44158405,19.1559234 C6.28621513,19.1559234 6.96691887,19.4247068 6.96691887,19.7675394 Z M13.8241703,3.60176313 C13.5216478,2.61127281 14.6057524,1.85308736 15.8158424,2.14655384 C16.5848147,2.32992944 16.836898,3.28383201 16.9251665,3.9441589 C16.1602577,4.18087022 15.4109475,4.4626277 14.6814112,4.78786137 C14.6688014,4.80009369 14.6435818,4.80009369 14.630972,4.81232601 C14.2596106,4.48248484 13.981802,4.06564784 13.8241703,3.60176313 L13.8241703,3.60176313 Z M20.7573057,23.5216605 L19.1565373,22.1769789 C20.1145439,21.5166521 20.7574183,21.3943289 21.1229897,21.3943289 C21.501171,21.3943289 21.7406445,21.5411167 21.8667425,21.8468155 C21.9297914,22.0058357 21.891962,22.2259082 21.7532543,22.4826777 C21.6020494,22.7879397 21.2743073,23.1670324 20.7575309,23.5216605 L20.7573057,23.5216605 Z M18.7025847,22.5189378 L20.2656363,23.8273593 C19.7213333,24.1150188 19.1408169,24.332873 18.5386573,24.4754538 C18.2613544,24.5366154 17.9840515,24.597777 17.7066361,24.6465971 L16.8746148,23.7050361 C17.5187828,23.3625907 18.1305525,22.9656861 18.7028098,22.5189378 L18.7025847,22.5189378 Z M16.4463321,23.9128763 L17.1522554,24.7077587 C16.5754265,24.7806086 15.9943634,24.8173815 15.4126667,24.8178496 C15.012561,24.8209929 14.6126276,24.8005681 14.2150739,24.756688 L14.1394152,24.7811526 C14.9365531,24.567785 15.7094454,24.2768842 16.4463321,23.9128763 Z M35.6199754,17.9210051 C35.4560481,17.9210051 35.2922333,17.9210051 35.1409158,17.9332374 L34.7122954,17.9821667 L35.1030864,18.3490271 C35.1156962,18.3612594 36.0863126,19.3150528 36.6032016,21.2348718 C36.0233763,20.8802437 34.9518815,20.4157432 33.4013271,20.9536377 L33.4013271,20.9414053 C33.3887173,20.9536377 33.3887173,20.96587 33.3761075,20.9903346 C31.409655,24.2308074 26.9346415,26.4564345 23.3293661,26.4564345 C22.0814467,26.4564345 21.3881332,26.3830406 20.1527111,26.0284125 C20.5939413,25.7471783 21.0602785,25.0134575 21.0602785,25.0134575 C21.0602785,25.0134575 19.8879054,25.6615521 19.5349437,25.7838753 L19.5349437,25.7838753 L19.433615,25.8205722 C18.7976461,26.0653815 18.1101591,26.1576619 17.4295583,26.0895741 C16.6731958,26.0161802 16.0177117,25.771643 15.5387646,25.3680856 C16.6004996,25.3670814 17.6583655,25.2439346 18.6902,25.0012252 C20.35413,24.6099001 21.7659767,23.7172684 22.2953629,22.7267781 C22.509279,22.3232207 22.560056,21.9563603 22.4340706,21.6384292 C22.2324265,21.1251086 21.7659767,20.8313144 21.1609317,20.8313144 C20.417179,20.8313144 19.4843919,21.2471041 18.3876776,22.066342 C15.7909605,23.9983933 12.2613439,24.5365062 12.2235145,24.5487385 L11.8957724,24.5976678 L11.8075038,24.5854355 L11.7696745,24.5854355 C10.9910958,24.6686268 10.2083262,24.7094651 9.42504074,24.7077587 C7.50902746,24.7077587 4.16844513,24.4509892 2.57972357,22.8124043 C4.02939962,23.1303354 5.9580227,23.0324769 7.5715135,22.2621683 C8.59256911,21.785217 8.99596996,21.1738194 9.02118955,20.5746541 C10.0926843,20.0366505 11.8322731,19.1806065 13.1810708,18.6792997 C15.2736212,17.8966497 16.2694572,18.1045991 19.8746201,18.2635101 C24.1979783,18.4468857 26.4295742,15.6344349 28.1439433,14.7662677 C29.8583125,13.8858683 31.9004237,14.3994073 31.9004237,14.3994073 C30.4255281,13.017592 27.6774935,13.2498968 27.6774935,13.2498968 C29.3162039,12.161548 30.9045877,12.002637 32.215556,12.2104772 L32.215556,12.2104772 C33.3706289,12.411558 34.4471983,12.9147153 35.329162,13.6656865 L35.329162,13.7146158 C35.3543816,13.7390805 37.3964928,15.4632916 38.2662309,18.5325119 C37.5859775,18.2389362 36.5019855,17.9454697 35.6195251,17.9210051 L35.6199754,17.9210051 Z" id="XMLID_11_" fill="#000000" fill-rule="nonzero"></path>
                    </g>
                    <path d="M18.4976351,14.1520126 C18.4976351,15.278276 19.1976181,16.2936403 20.2711826,16.7246427 C21.3447471,17.1556451 22.5804733,16.9174069 23.402144,16.1210184 C24.2238147,15.3246299 24.4696159,14.1269261 24.0249309,13.0863943 C23.580246,12.0458626 22.5326479,11.3674175 21.37063,11.3674175 C20.6085547,11.3670704 19.8775889,11.6603349 19.3387202,12.1826231 C18.7998515,12.7049112 18.497277,13.4133857 18.4976351,14.1520126 L18.4976351,14.1520126 Z M23.0212964,14.2986161 C22.9509979,15.0310247 22.3773375,15.6240442 21.6277681,15.7391714 C20.8781987,15.8542985 20.1434795,15.4622345 19.8429977,14.7867744 C19.5425158,14.1113144 19.7527415,13.3243573 20.3536752,12.8751085 C20.9546089,12.4258597 21.7933179,12.4286493 22.3910563,12.8818848 L21.370405,14.1520126 L23.0212964,14.2986161 Z" id="XMLID_3_" fill="#FFFFFF" fill-rule="nonzero"></path>
                    <path d="M19.6792335,14.1379431 C19.6499884,15.0040385 20.3381036,15.7356339 21.2323568,15.7892042 C22.1266101,15.8427745 22.9028108,15.198899 22.9842952,14.3359329 L21.3404436,14.1902443 L22.3568812,12.9280426 C22.0693297,12.7037306 21.7098372,12.5835392 21.3404436,12.5882107 C20.4444819,12.5852348 19.7084786,13.2718476 19.6792335,14.1379431 Z" id="XMLID_2_" fill="#000000" fill-rule="nonzero"></path>
                </g>
            </g>
            <rect id="Border" stroke="#AA0000" stroke-width="2.13333333" x="1.06666667" y="5.63809524" width="96.5609777" height="22.552381" rx="1.46285714"></rect>
        </g>
        <text id="Pin-It!" font-family="ArialMT, Arial" font-size="10.7075636" font-weight="normal" fill="#FFFFFF">
            <tspan x="31.3123039" y="17">Pin It!</tspan>
        </text>
        <g id="pinterest" transform="translate(7.000000, 6.000000)" fill="#FFFFFF" fill-rule="nonzero">
            <path d="M7.6912276,0 C3.44334489,0 0,3.45532571 0,7.71734476 C0,10.9872533 2.02610083,13.780099 4.88753519,14.9035467 C4.82016958,14.2925714 4.75986133,13.3564724 4.91383986,12.6894857 C5.05434527,12.0862362 5.81589741,8.85431238 5.81589741,8.85431238 C5.81589741,8.85431238 5.5855712,8.39076952 5.5855712,7.70768762 C5.5855712,6.63703238 6.20597636,5.8335581 6.97651059,5.8335581 C7.63348565,5.8335581 7.95042479,6.32864762 7.95042479,6.92030857 C7.95042479,7.58278857 7.53147488,8.57296762 7.3139802,9.49039619 C7.1311307,10.258461 7.69892653,10.8842438 8.45277975,10.8842438 C9.81805605,10.8842438 10.8702427,9.43889143 10.8702427,7.35166095 C10.8702427,5.5097219 9.54666889,4.21695238 7.65722401,4.21695238 C5.46944572,4.21695238 4.18693288,5.86639238 4.18693288,7.5641181 C4.18693288,8.22917333 4.4397143,8.9438019 4.75729502,9.3288 C4.82081116,9.40605714 4.82915166,9.47365714 4.81182908,9.55091429 C4.75408713,9.79234286 4.62384696,10.3228419 4.59754229,10.4284267 C4.5635387,10.5732838 4.48719101,10.602899 4.34026983,10.5346552 C3.3811119,10.0904267 2.77931248,8.68177143 2.77931248,7.54351619 C2.77931248,5.11249143 4.54236665,2.87460952 7.86060398,2.87460952 C10.528282,2.87460952 12.6031427,4.78479238 12.6031427,7.33170286 C12.6031427,9.99385524 10.9305509,12.1358095 8.60419197,12.1358095 C7.82531724,12.1358095 7.09391922,11.7308533 6.83472202,11.2479962 L6.35418069,13.0815657 C6.18159642,13.7543467 5.71003717,14.5958057 5.39309803,15.1069905 C6.11358924,15.3291048 6.87257508,15.4514286 7.67069713,15.4514286 C11.9095978,15.4514286 15.36,11.9973905 15.36,7.73408381 C15.36,3.47013333 11.9095978,0.0167390476 7.67069713,0.0167390476 L7.6912276,0 Z" id="Path"></path>
        </g>
    </g>
</svg>