<?xml version="1.0" encoding="UTF-8"?>
<svg width="25px" height="25px" viewBox="0 0 25 25" version="1.1" xmlns="http://www.w3.org/2000/svg" xmlns:xlink="http://www.w3.org/1999/xlink">
    <!-- Generator: Sketch 41.2 (35397) - http://www.bohemiancoding.com/sketch -->
    <title>help</title>
    <desc>Created with Sketch.</desc>
    <defs></defs>
    <g id="Page-1" stroke="none" stroke-width="1" fill="none" fill-rule="evenodd">
        <path d="M12.5,25 C19.4035594,25 25,19.4035594 25,12.5 C25,5.59644063 19.4035594,0 12.5,0 C5.59644063,0 0,5.59644063 0,12.5 C0,19.4035594 5.59644063,25 12.5,25 Z M10.888,14.752 C10.888,14.2719976 10.9519994,13.8640017 11.08,13.528 C11.2080006,13.1919983 11.4239985,12.8800014 11.728,12.592 C12.1760022,12.1599978 12.5879981,11.7840016 12.964,11.464 C13.3400019,11.1439984 13.6639986,10.8440014 13.936,10.564 C14.2080014,10.2839986 14.4199992,10.0200012 14.572,9.772 C14.7240008,9.52399876 14.8,9.26400136 14.8,8.992 C14.8,8.46399736 14.6360016,8.05200148 14.308,7.756 C13.9799984,7.45999852 13.5680025,7.312 13.072,7.312 C12.3199962,7.312 11.748002,7.51999792 11.356,7.936 C10.963998,8.35200208 10.7440002,8.85599704 10.696,9.448 L7,9.208 C7.17600088,7.51199152 7.79999464,6.22000444 8.872,5.332 C9.94400536,4.44399556 11.3199916,4 13,4 C13.7360037,4 14.4279968,4.099999 15.076,4.3 C15.7240032,4.500001 16.2959975,4.799998 16.792,5.2 C17.2880025,5.600002 17.6799986,6.09599704 17.968,6.688 C18.2560014,7.28000296 18.4,7.95999616 18.4,8.728 C18.4,9.19200232 18.3520005,9.61199812 18.256,9.988 C18.1599995,10.3640019 17.9960012,10.7359982 17.764,11.104 C17.5319988,11.4720018 17.2280019,11.8439981 16.852,12.22 C16.4759981,12.5960019 16.0000029,13.0079978 15.424,13.456 C15.0559982,13.7440014 14.8080006,14.0239986 14.68,14.296 C14.5519994,14.5680014 14.488,14.8399986 14.488,15.112 L14.488,15.808 L10.888,15.808 L10.888,14.752 Z M10.48,19.36 C10.48,19.0559985 10.5359994,18.7680014 10.648,18.496 C10.7600006,18.2239986 10.915999,17.988001 11.116,17.788 C11.316001,17.587999 11.5519986,17.4320006 11.824,17.32 C12.0960014,17.2079994 12.3839985,17.152 12.688,17.152 C12.9920015,17.152 13.2799986,17.2079994 13.552,17.32 C13.8240014,17.4320006 14.059999,17.587999 14.26,17.788 C14.460001,17.988001 14.6159994,18.2239986 14.728,18.496 C14.8400006,18.7680014 14.896,19.0559985 14.896,19.36 C14.896,19.6640015 14.8400006,19.9519986 14.728,20.224 C14.6159994,20.4960014 14.460001,20.731999 14.26,20.932 C14.059999,21.132001 13.8240014,21.2879994 13.552,21.4 C13.2799986,21.5120006 12.9920015,21.568 12.688,21.568 C12.3839985,21.568 12.0960014,21.5120006 11.824,21.4 C11.5519986,21.2879994 11.316001,21.132001 11.116,20.932 C10.915999,20.731999 10.7600006,20.4960014 10.648,20.224 C10.5359994,19.9519986 10.48,19.6640015 10.48,19.36 Z" id="help" fill="#656565"></path>
    </g>
</svg>